G04*
G04 #@! TF.GenerationSoftware,Altium Limited,Altium Designer,22.10.1 (41)*
G04*
G04 Layer_Physical_Order=1*
G04 Layer_Color=255*
%FSLAX24Y24*%
%MOIN*%
G70*
G04*
G04 #@! TF.SameCoordinates,5266F301-D4F6-43A7-B3E8-B4584DB96D65*
G04*
G04*
G04 #@! TF.FilePolarity,Positive*
G04*
G01*
G75*
%ADD36C,0.0276*%
%ADD37C,0.0787*%
%ADD38C,0.0120*%
%ADD39C,0.1969*%
%ADD40C,0.0197*%
%ADD41R,0.0906X0.0906*%
%ADD42C,0.1260*%
%ADD43O,0.0700X0.0750*%
%ADD44R,0.0700X0.0700*%
%ADD45R,0.0945X0.0945*%
%ADD46R,0.0787X0.0787*%
%ADD47C,0.0787*%
%ADD48R,0.1000X0.1600*%
%ADD49R,0.1600X0.1000*%
%ADD50C,0.0591*%
%ADD51R,0.0591X0.0591*%
%ADD52R,0.0630X0.0630*%
%ADD53C,0.0630*%
%ADD54C,0.0650*%
%ADD55R,0.0650X0.0650*%
%ADD56P,0.0852X8X22.5*%
%ADD57C,0.0500*%
G36*
X35788Y42432D02*
X35775Y42408D01*
X35763Y42369D01*
X35753Y42314D01*
X35745Y42243D01*
X35732Y42054D01*
X35725Y41652D01*
X34938D01*
X34937Y41802D01*
X34900Y42369D01*
X34888Y42408D01*
X34875Y42432D01*
X34860Y42440D01*
X35803D01*
X35788Y42432D01*
D02*
G37*
G36*
X48856Y41770D02*
Y40501D01*
X48841Y40457D01*
X48806Y40457D01*
X48305D01*
X47145Y41617D01*
X46963Y41692D01*
X43255D01*
X43073Y41617D01*
X37610Y36154D01*
X37558Y36029D01*
X37508Y36039D01*
Y39344D01*
X37744D01*
Y39564D01*
X37791Y39584D01*
X38031Y39344D01*
X38440D01*
X38686Y39590D01*
X38735Y39580D01*
X38745Y39556D01*
X38841Y39460D01*
X38940Y39419D01*
X39015Y39344D01*
X39121D01*
X39219Y39303D01*
X39317Y39344D01*
X39424D01*
X39499Y39419D01*
X39597Y39460D01*
X39620Y39515D01*
X39679Y39527D01*
X39959Y39247D01*
X40105D01*
Y39837D01*
Y40428D01*
X39959D01*
X39703Y40172D01*
X39657Y40191D01*
Y41433D01*
X39500Y41811D01*
X39060Y42252D01*
X39079Y42298D01*
X48329D01*
X48856Y41770D01*
D02*
G37*
G36*
X38189Y40229D02*
X37914Y40066D01*
X37916Y40071D01*
X37916Y40077D01*
X37914Y40085D01*
X37910Y40094D01*
X37903Y40104D01*
X37895Y40115D01*
X37884Y40129D01*
X37857Y40159D01*
X37840Y40176D01*
X38035Y40371D01*
X38189Y40229D01*
D02*
G37*
G36*
X51349Y12671D02*
X12621D01*
Y43525D01*
X18990D01*
X19011Y43483D01*
X19011Y43475D01*
Y42930D01*
X18970Y42832D01*
Y42822D01*
X17942Y41793D01*
X17497D01*
Y39993D01*
X18697D01*
Y40359D01*
X20100D01*
X22972Y37487D01*
X22986Y37468D01*
Y36513D01*
X23125Y36178D01*
Y36118D01*
X23185D01*
X23520Y35979D01*
X23856Y36118D01*
X23916D01*
Y36178D01*
X24055Y36513D01*
Y37498D01*
Y37694D01*
X23898Y38072D01*
X20700Y41271D01*
X20322Y41428D01*
X19153D01*
X19134Y41474D01*
X19883Y42223D01*
X19930Y42339D01*
X20156D01*
Y43475D01*
X20156Y43483D01*
X20177Y43525D01*
X34738D01*
X34759Y43483D01*
X34759Y43475D01*
Y42457D01*
X34752Y42440D01*
X34758Y42425D01*
X34757Y42408D01*
X34759Y42405D01*
Y42339D01*
X34793D01*
X34797Y42281D01*
Y41479D01*
X31350Y38032D01*
X30607D01*
X30271Y37893D01*
X30212D01*
Y37833D01*
X30073Y37498D01*
Y36513D01*
X30212Y36178D01*
Y36118D01*
X30271D01*
X30607Y35979D01*
X30943Y36118D01*
X31002D01*
Y36178D01*
X31141Y36513D01*
Y36963D01*
X31572D01*
X31950Y37120D01*
X35709Y40880D01*
X35866Y41257D01*
Y42298D01*
X37502D01*
X38588Y41212D01*
Y40248D01*
X38542Y40229D01*
X38440Y40331D01*
X38244D01*
X38121Y40454D01*
X38120Y40456D01*
X37925Y40651D01*
X37743Y40726D01*
X36674D01*
X36492Y40651D01*
X33279Y37438D01*
X33204Y37256D01*
Y34167D01*
X32115D01*
Y34263D01*
X31563D01*
Y33614D01*
Y32964D01*
X32115D01*
Y33061D01*
X34654D01*
X35151Y32564D01*
X35333Y32489D01*
X36731D01*
X36913Y32564D01*
X37433Y33083D01*
X37485Y33209D01*
X37535Y33199D01*
Y31748D01*
X36898Y31111D01*
X33526D01*
X33526Y31112D01*
X33525Y31112D01*
X33520Y31115D01*
X33514Y31116D01*
X33509Y31118D01*
X33416Y31211D01*
X33126D01*
X32921Y31006D01*
Y30716D01*
X33126Y30511D01*
X33416D01*
X33497Y30592D01*
X33499Y30593D01*
X33507Y30594D01*
X33511Y30596D01*
X33512Y30596D01*
X33513Y30597D01*
X37005D01*
X37187Y30672D01*
X37974Y31459D01*
X38050Y31641D01*
Y35865D01*
X42404Y40220D01*
X42450Y40200D01*
Y39344D01*
X42686D01*
Y32382D01*
X42761Y32200D01*
X44661Y30301D01*
Y30064D01*
X44909Y29815D01*
X45261D01*
X45510Y30064D01*
Y30416D01*
X45261Y30665D01*
X45025D01*
X44924Y30765D01*
X44945Y30815D01*
X45261D01*
X45510Y31064D01*
Y31416D01*
X45261Y31665D01*
X44909D01*
X44843Y31598D01*
X43912Y32529D01*
Y39172D01*
X44012Y39272D01*
X44029Y39313D01*
X44047Y39315D01*
X44082Y39268D01*
X44080Y39263D01*
Y33988D01*
X44155Y33806D01*
X44661Y33301D01*
Y33064D01*
X44909Y32815D01*
X45226D01*
X45247Y32765D01*
X45146Y32665D01*
X44909D01*
X44661Y32416D01*
Y32064D01*
X44909Y31815D01*
X45261D01*
X45510Y32064D01*
Y32301D01*
X46078Y32869D01*
X46154Y33051D01*
Y39397D01*
X46390Y39633D01*
Y40042D01*
X46101Y40331D01*
X45692D01*
X45404Y40044D01*
X45116Y40331D01*
X44707D01*
X44420Y40044D01*
X44132Y40331D01*
X43723D01*
X43483Y40091D01*
X43437Y40110D01*
Y40331D01*
X42581D01*
X42561Y40377D01*
X43361Y41177D01*
X46857D01*
X47941Y40093D01*
Y39557D01*
X48806D01*
X48841Y39557D01*
X48856Y39514D01*
Y39180D01*
X47060Y37383D01*
X46903Y37006D01*
Y34545D01*
X47060Y34167D01*
X48184Y33043D01*
X48561Y32887D01*
X49551D01*
Y32240D01*
X49708Y31862D01*
X50061Y31716D01*
X50063Y31715D01*
X50060Y31698D01*
X50060D01*
Y31698D01*
X50024Y31665D01*
X49909D01*
X49661Y31416D01*
Y31064D01*
X49909Y30815D01*
X50261D01*
X50510Y31064D01*
Y31416D01*
X50261Y31665D01*
X50147D01*
X50111Y31698D01*
Y31698D01*
X50111D01*
X50108Y31715D01*
X50110Y31716D01*
X50463Y31862D01*
X50620Y32240D01*
Y33240D01*
X50463Y33618D01*
X50282Y33799D01*
X50294Y33848D01*
X50510Y34064D01*
Y34416D01*
X50261Y34665D01*
X49909D01*
X49661Y34416D01*
Y34064D01*
X49723Y34002D01*
X49703Y33956D01*
X48783D01*
X47972Y34766D01*
Y36784D01*
X49768Y38580D01*
X49925Y38958D01*
Y39555D01*
X49972Y39564D01*
X50292Y39431D01*
Y40007D01*
Y40584D01*
X49972Y40451D01*
X49925Y40460D01*
Y41992D01*
X49768Y42370D01*
X48928Y43210D01*
X48550Y43367D01*
X35904D01*
Y43475D01*
X35904Y43483D01*
X35925Y43525D01*
X51349D01*
Y12671D01*
D02*
G37*
G36*
X23302Y38468D02*
X23824Y37867D01*
X23841Y37825D01*
X23838Y37800D01*
X23815Y37792D01*
X23226Y37204D01*
X23221Y37252D01*
X23204Y37308D01*
X23176Y37370D01*
X23137Y37439D01*
X23087Y37514D01*
X23026Y37596D01*
X22870Y37779D01*
X22670Y37989D01*
X23145Y38627D01*
X23302Y38468D01*
D02*
G37*
G36*
X45639Y39397D02*
Y35495D01*
X45589Y35474D01*
X45302Y35761D01*
X45184D01*
Y35240D01*
Y34718D01*
X45302D01*
X45589Y35005D01*
X45639Y34985D01*
Y33157D01*
X45560Y33079D01*
X45510Y33099D01*
Y33416D01*
X45261Y33665D01*
X45025D01*
X44924Y33765D01*
X44945Y33815D01*
X45261D01*
X45510Y34064D01*
Y34416D01*
X45261Y34665D01*
X44909D01*
X44661Y34416D01*
Y34142D01*
X44611Y34115D01*
X44595Y34126D01*
Y34927D01*
X44641Y34946D01*
X44869Y34718D01*
X44987D01*
Y35240D01*
Y35761D01*
X44869D01*
X44641Y35533D01*
X44595Y35552D01*
Y39156D01*
X44782Y39344D01*
X45116D01*
X45404Y39631D01*
X45639Y39397D01*
D02*
G37*
G36*
X36757Y40123D02*
Y39344D01*
X36993D01*
Y33372D01*
X36625Y33003D01*
X36352D01*
X36333Y33050D01*
X36595Y33311D01*
Y33916D01*
X36167Y34344D01*
X35563D01*
X35135Y33916D01*
Y33378D01*
X35085Y33358D01*
X35018Y33425D01*
Y34167D01*
X33741D01*
X33719Y34221D01*
Y37150D01*
X36711Y40142D01*
X36757Y40123D01*
D02*
G37*
G36*
X33462Y31023D02*
X33473Y31017D01*
X33486Y31011D01*
X33500Y31006D01*
X33517Y31002D01*
X33536Y30998D01*
X33557Y30995D01*
X33606Y30992D01*
X33634Y30992D01*
X33625Y30716D01*
X33597Y30716D01*
X33527Y30711D01*
X33508Y30707D01*
X33491Y30703D01*
X33476Y30699D01*
X33464Y30694D01*
X33453Y30688D01*
X33445Y30681D01*
X33454Y31031D01*
X33462Y31023D01*
D02*
G37*
%LPC*%
G36*
X40448Y40428D02*
X40302D01*
Y39936D01*
X40794D01*
Y40082D01*
X40448Y40428D01*
D02*
G37*
G36*
X40794Y39739D02*
X40302D01*
Y39247D01*
X40448D01*
X40794Y39593D01*
Y39739D01*
D02*
G37*
G36*
X30811Y42517D02*
X30706D01*
Y42124D01*
X31099D01*
Y42229D01*
X30811Y42517D01*
D02*
G37*
G36*
X30509D02*
X30403D01*
X30115Y42229D01*
Y42124D01*
X30509D01*
Y42517D01*
D02*
G37*
G36*
X23724D02*
X23619D01*
Y42124D01*
X24013D01*
Y42229D01*
X23724Y42517D01*
D02*
G37*
G36*
X23422D02*
X23317D01*
X23028Y42229D01*
Y42124D01*
X23422D01*
Y42517D01*
D02*
G37*
G36*
X31099Y41927D02*
X30115D01*
Y41821D01*
X30368Y41568D01*
X30403Y41533D01*
X30368Y41498D01*
X30115Y41245D01*
Y41139D01*
X31099D01*
Y41245D01*
X30846Y41498D01*
X30811Y41533D01*
X30846Y41568D01*
X31099Y41821D01*
Y41927D01*
D02*
G37*
G36*
X24013D02*
X23028D01*
Y41821D01*
X23281Y41568D01*
X23317Y41533D01*
X23281Y41498D01*
X23028Y41245D01*
Y41139D01*
X24013D01*
Y41245D01*
X23760Y41498D01*
X23724Y41533D01*
X23760Y41568D01*
X24013Y41821D01*
Y41927D01*
D02*
G37*
G36*
X16294Y41890D02*
X15696D01*
Y40992D01*
X16294D01*
Y41890D01*
D02*
G37*
G36*
X15499D02*
X14900D01*
Y40992D01*
X15499D01*
Y41890D01*
D02*
G37*
G36*
X31099Y40943D02*
X30706D01*
Y40549D01*
X30811D01*
X31099Y40837D01*
Y40943D01*
D02*
G37*
G36*
X30509D02*
X30115D01*
Y40837D01*
X30403Y40549D01*
X30509D01*
Y40943D01*
D02*
G37*
G36*
X24013D02*
X23619D01*
Y40549D01*
X23724D01*
X24013Y40837D01*
Y40943D01*
D02*
G37*
G36*
X23422D02*
X23028D01*
Y40837D01*
X23317Y40549D01*
X23422D01*
Y40943D01*
D02*
G37*
G36*
X50489Y40584D02*
Y40106D01*
X50952D01*
X50809Y40451D01*
X50489Y40584D01*
D02*
G37*
G36*
X16294Y40795D02*
X15696D01*
Y39896D01*
X16294D01*
Y40795D01*
D02*
G37*
G36*
X15499D02*
X14900D01*
Y39896D01*
X15499D01*
Y40795D01*
D02*
G37*
G36*
X50952Y39909D02*
X50489D01*
Y39431D01*
X50809Y39564D01*
X50952Y39909D01*
D02*
G37*
G36*
X18094Y39590D02*
X17196D01*
Y38992D01*
X18094D01*
Y39590D01*
D02*
G37*
G36*
X16999D02*
X16100D01*
Y38992D01*
X16999D01*
Y39590D01*
D02*
G37*
G36*
X18094Y38795D02*
X17196D01*
Y38196D01*
X18094D01*
Y38795D01*
D02*
G37*
G36*
X16999D02*
X16100D01*
Y38196D01*
X16999D01*
Y38795D01*
D02*
G37*
G36*
X50585Y38334D02*
X50194D01*
Y37252D01*
X51276D01*
Y37642D01*
X50585Y38334D01*
D02*
G37*
G36*
X49997D02*
X49606D01*
X48914Y37642D01*
Y37252D01*
X49997D01*
Y38334D01*
D02*
G37*
G36*
X14364D02*
X13973D01*
Y37252D01*
X15056D01*
Y37642D01*
X14364Y38334D01*
D02*
G37*
G36*
X13776D02*
X13386D01*
X12694Y37642D01*
Y37252D01*
X13776D01*
Y38334D01*
D02*
G37*
G36*
X51276Y37055D02*
X50194D01*
Y35972D01*
X50585D01*
X51276Y36664D01*
Y37055D01*
D02*
G37*
G36*
X49997D02*
X48914D01*
Y36664D01*
X49606Y35972D01*
X49997D01*
Y37055D01*
D02*
G37*
G36*
X15056D02*
X13973D01*
Y35972D01*
X14364D01*
X15056Y36664D01*
Y37055D01*
D02*
G37*
G36*
X13776D02*
X12694D01*
Y36664D01*
X13386Y35972D01*
X13776D01*
Y37055D01*
D02*
G37*
G36*
X20253Y36494D02*
X19682D01*
Y35923D01*
X20253D01*
Y36494D01*
D02*
G37*
G36*
X19485D02*
X18914D01*
Y35923D01*
X19485D01*
Y36494D01*
D02*
G37*
G36*
X20253Y35726D02*
X19682D01*
Y35155D01*
X20253D01*
Y35726D01*
D02*
G37*
G36*
X19485D02*
X18914D01*
Y35155D01*
X19485D01*
Y35726D01*
D02*
G37*
G36*
X50261Y35665D02*
X49909D01*
X49661Y35416D01*
Y35064D01*
X49909Y34815D01*
X50261D01*
X50510Y35064D01*
Y35416D01*
X50261Y35665D01*
D02*
G37*
G36*
X31367Y34263D02*
X30815D01*
Y34167D01*
X24912D01*
Y33061D01*
X28208D01*
Y31667D01*
X28283Y31485D01*
X28920Y30848D01*
X28921Y30847D01*
X28921Y30846D01*
X28922Y30841D01*
X28927Y30836D01*
X28928Y30832D01*
Y30709D01*
X29133Y30504D01*
X29423D01*
X29628Y30709D01*
Y30999D01*
X29423Y31204D01*
X29300D01*
X29297Y31206D01*
X29291Y31210D01*
X29286Y31211D01*
X29285Y31212D01*
X29284Y31212D01*
X28722Y31774D01*
Y33061D01*
X29208D01*
Y32341D01*
X29283Y32159D01*
X34559Y26883D01*
X34741Y26807D01*
X47184D01*
X49690Y24300D01*
Y23746D01*
X49644Y23726D01*
X49554Y23817D01*
X49357D01*
Y23226D01*
X49259D01*
Y23128D01*
X48668D01*
Y22931D01*
X48959Y22640D01*
X48765Y22446D01*
Y22037D01*
X49054Y21748D01*
X49463D01*
X49752Y22037D01*
Y22371D01*
X50130Y22749D01*
X50205Y22931D01*
Y24407D01*
X50130Y24589D01*
X47472Y27247D01*
X47290Y27322D01*
X34848D01*
X29722Y32447D01*
Y33061D01*
X30208D01*
Y32472D01*
X30283Y32290D01*
X35078Y27495D01*
X35260Y27420D01*
X47457D01*
X50281Y24596D01*
Y19740D01*
X49945Y19404D01*
X49898Y19423D01*
Y19683D01*
X49603Y19978D01*
X49406D01*
Y19387D01*
X49308D01*
Y19289D01*
X48717D01*
Y19092D01*
X49008Y18801D01*
X48814Y18608D01*
Y18199D01*
X49103Y17909D01*
X49512D01*
X49802Y18199D01*
Y18533D01*
X50720Y19451D01*
X50796Y19633D01*
Y24702D01*
X50720Y24884D01*
X47745Y27859D01*
X47563Y27935D01*
X45446D01*
X45427Y27981D01*
X45510Y28064D01*
Y28416D01*
X45261Y28665D01*
X44909D01*
X44661Y28416D01*
Y28064D01*
X44744Y27981D01*
X44725Y27935D01*
X35367D01*
X30722Y32579D01*
Y33061D01*
X30815D01*
Y32964D01*
X31367D01*
Y33614D01*
Y34263D01*
D02*
G37*
G36*
X50261Y30665D02*
X49909D01*
X49661Y30416D01*
Y30064D01*
X49909Y29815D01*
X50261D01*
X50510Y30064D01*
Y30416D01*
X50261Y30665D01*
D02*
G37*
G36*
X45302Y29761D02*
X45184D01*
Y29338D01*
X45607D01*
Y29456D01*
X45302Y29761D01*
D02*
G37*
G36*
X44987D02*
X44869D01*
X44564Y29456D01*
Y29338D01*
X44987D01*
Y29761D01*
D02*
G37*
G36*
X50261Y29665D02*
X49909D01*
X49661Y29416D01*
Y29064D01*
X49909Y28815D01*
X50261D01*
X50510Y29064D01*
Y29416D01*
X50261Y29665D01*
D02*
G37*
G36*
X45607Y29141D02*
X45184D01*
Y28718D01*
X45302D01*
X45607Y29024D01*
Y29141D01*
D02*
G37*
G36*
X44987D02*
X44564D01*
Y29024D01*
X44869Y28718D01*
X44987D01*
Y29141D01*
D02*
G37*
G36*
X50510Y28665D02*
X49661D01*
Y27815D01*
X50510D01*
Y28665D01*
D02*
G37*
G36*
X16167Y28344D02*
X15563D01*
X15135Y27916D01*
Y27311D01*
X15563Y26884D01*
X16167D01*
X16595Y27311D01*
Y27916D01*
X16167Y28344D01*
D02*
G37*
G36*
X24418Y34167D02*
X16312D01*
Y33061D01*
X18600D01*
Y32909D01*
X18675Y32727D01*
X28376Y23026D01*
X28558Y22951D01*
X45287D01*
X45445Y22793D01*
X45789D01*
X46032Y23036D01*
Y23380D01*
X45789Y23623D01*
X45445D01*
X45287Y23466D01*
X28664D01*
X19119Y33011D01*
X19126Y33061D01*
X19633D01*
Y32909D01*
X19709Y32727D01*
X28409Y24026D01*
X28591Y23951D01*
X45287D01*
X45445Y23793D01*
X45789D01*
X46032Y24036D01*
Y24380D01*
X45789Y24623D01*
X45445D01*
X45287Y24466D01*
X28698D01*
X20153Y33011D01*
X20159Y33061D01*
X20716D01*
Y32909D01*
X20791Y32727D01*
X28492Y25026D01*
X28674Y24951D01*
X45287D01*
X45445Y24793D01*
X45789D01*
X46032Y25036D01*
Y25380D01*
X45789Y25623D01*
X45445D01*
X45287Y25466D01*
X28781D01*
X21235Y33011D01*
X21242Y33061D01*
X21588D01*
Y32909D01*
X21663Y32727D01*
X28364Y26026D01*
X28546Y25951D01*
X45287D01*
X45445Y25793D01*
X45789D01*
X46032Y26036D01*
Y26380D01*
X45789Y26623D01*
X45445D01*
X45287Y26466D01*
X28653D01*
X22107Y33011D01*
X22114Y33061D01*
X24418D01*
Y34167D01*
D02*
G37*
G36*
X49160Y23817D02*
X48963D01*
X48668Y23521D01*
Y23324D01*
X49160D01*
Y23817D01*
D02*
G37*
G36*
X17368Y26167D02*
X15262D01*
Y25061D01*
Y24061D01*
Y23061D01*
X17368D01*
Y24061D01*
Y25061D01*
Y26167D01*
D02*
G37*
G36*
X45789Y22623D02*
X45445D01*
X45287Y22466D01*
X22503D01*
X22321Y22390D01*
X18683Y18752D01*
X18608Y18570D01*
Y15167D01*
X16312D01*
Y14061D01*
X22418D01*
Y15167D01*
X22122D01*
Y16986D01*
X24088Y18951D01*
X45202D01*
Y18793D01*
X46032D01*
Y19623D01*
X45202D01*
Y19466D01*
X23981D01*
X23799Y19390D01*
X21683Y17274D01*
X21608Y17092D01*
Y15167D01*
X21122D01*
Y17216D01*
X23857Y19951D01*
X45287D01*
X45445Y19793D01*
X45789D01*
X46032Y20036D01*
Y20380D01*
X45789Y20623D01*
X45445D01*
X45287Y20466D01*
X23751D01*
X23569Y20390D01*
X20683Y17504D01*
X20608Y17322D01*
Y15167D01*
X20185D01*
Y17854D01*
X23283Y20951D01*
X45287D01*
X45445Y20793D01*
X45789D01*
X46032Y21036D01*
Y21380D01*
X45789Y21623D01*
X45445D01*
X45287Y21466D01*
X23176D01*
X22994Y21390D01*
X19746Y18142D01*
X19671Y17960D01*
Y15167D01*
X19122D01*
Y18464D01*
X22609Y21951D01*
X45287D01*
X45445Y21793D01*
X45789D01*
X46032Y22036D01*
Y22380D01*
X45789Y22623D01*
D02*
G37*
G36*
X49209Y19978D02*
X49013D01*
X48717Y19683D01*
Y19486D01*
X49209D01*
Y19978D01*
D02*
G37*
G36*
X16167Y17344D02*
X15563D01*
X15135Y16916D01*
Y16311D01*
X15563Y15884D01*
X16167D01*
X16595Y16311D01*
Y16916D01*
X16167Y17344D01*
D02*
G37*
G36*
X50585Y15106D02*
X50194D01*
Y14023D01*
X51276D01*
Y14414D01*
X50585Y15106D01*
D02*
G37*
G36*
X49997D02*
X49606D01*
X48914Y14414D01*
Y14023D01*
X49997D01*
Y15106D01*
D02*
G37*
G36*
X14364D02*
X13973D01*
Y14023D01*
X15056D01*
Y14414D01*
X14364Y15106D01*
D02*
G37*
G36*
X13776D02*
X13386D01*
X12694Y14414D01*
Y14023D01*
X13776D01*
Y15106D01*
D02*
G37*
G36*
X26515Y15263D02*
X25963D01*
Y14614D01*
Y13964D01*
X26515D01*
Y14061D01*
X31418D01*
Y15167D01*
X26515D01*
Y15263D01*
D02*
G37*
G36*
X25767D02*
X24963D01*
Y14614D01*
Y13964D01*
X25767D01*
Y14614D01*
Y15263D01*
D02*
G37*
G36*
X24767D02*
X24215D01*
Y15167D01*
X23312D01*
Y14061D01*
X24215D01*
Y13964D01*
X24767D01*
Y14614D01*
Y15263D01*
D02*
G37*
G36*
X36667Y15344D02*
X36063D01*
X35635Y14916D01*
Y14311D01*
X36063Y13884D01*
X36667D01*
X37095Y14311D01*
Y14916D01*
X36667Y15344D01*
D02*
G37*
G36*
X51276Y13826D02*
X50194D01*
Y12744D01*
X50585D01*
X51276Y13436D01*
Y13826D01*
D02*
G37*
G36*
X49997D02*
X48914D01*
Y13436D01*
X49606Y12744D01*
X49997D01*
Y13826D01*
D02*
G37*
G36*
X15056D02*
X13973D01*
Y12744D01*
X14364D01*
X15056Y13436D01*
Y13826D01*
D02*
G37*
G36*
X13776D02*
X12694D01*
Y13436D01*
X13386Y12744D01*
X13776D01*
Y13826D01*
D02*
G37*
%LPD*%
G36*
X29142Y31186D02*
X29196Y31140D01*
X29211Y31129D01*
X29226Y31120D01*
X29240Y31113D01*
X29253Y31108D01*
X29265Y31105D01*
X29276Y31104D01*
X29028Y30856D01*
X29027Y30867D01*
X29024Y30879D01*
X29019Y30892D01*
X29012Y30906D01*
X29003Y30921D01*
X28992Y30937D01*
X28964Y30971D01*
X28947Y30990D01*
X28927Y31010D01*
X29122Y31205D01*
X29142Y31186D01*
D02*
G37*
%LPC*%
G36*
X36001Y36494D02*
X35430D01*
Y35923D01*
X36001D01*
Y36494D01*
D02*
G37*
G36*
X35233D02*
X34662D01*
Y35923D01*
X35233D01*
Y36494D01*
D02*
G37*
G36*
X36001Y35726D02*
X35430D01*
Y35155D01*
X36001D01*
Y35726D01*
D02*
G37*
G36*
X35233D02*
X34662D01*
Y35155D01*
X35233D01*
Y35726D01*
D02*
G37*
%LPD*%
D36*
X21845Y33594D02*
X21865Y33614D01*
X21845Y32909D02*
X28546Y26208D01*
X45617D01*
X21845Y32909D02*
Y33594D01*
X18857Y33606D02*
X18865Y33614D01*
X18857Y32909D02*
X28558Y23208D01*
X45617D01*
X18857Y32909D02*
Y33606D01*
X19891Y32909D02*
X28591Y24208D01*
X19865Y33614D02*
X19891Y33588D01*
X28591Y24208D02*
X45617D01*
X19891Y32909D02*
Y33588D01*
X20865Y33614D02*
X20973Y33506D01*
Y32909D02*
Y33506D01*
X28674Y25208D02*
X45617D01*
X20973Y32909D02*
X28674Y25208D01*
X30465Y32472D02*
X35260Y27677D01*
X47563D01*
X30465Y32472D02*
Y33614D01*
X33278Y30854D02*
X37005D01*
X37792Y31641D01*
X33271Y30861D02*
X33278Y30854D01*
X34741Y27065D02*
X47290D01*
X29465Y32341D02*
X34741Y27065D01*
X29465Y32341D02*
Y33614D01*
X28465Y31667D02*
X29278Y30854D01*
X28465Y31667D02*
Y33614D01*
X37792Y31641D02*
Y35972D01*
X43255Y41435D02*
X46963D01*
X37792Y35972D02*
X43255Y41435D01*
X46963D02*
X48391Y40007D01*
X45896Y33051D02*
Y39837D01*
X45085Y32240D02*
X45896Y33051D01*
X42943Y32382D02*
Y39837D01*
X44337Y33988D02*
Y39263D01*
X43830Y39740D02*
X43928Y39837D01*
X43830Y39454D02*
Y39740D01*
X44337Y39263D02*
X44912Y39837D01*
X43654Y39278D02*
X43830Y39454D01*
X43654Y32423D02*
Y39278D01*
X42943Y32382D02*
X45085Y30240D01*
X50538Y19633D02*
Y24702D01*
X47563Y27677D02*
X50538Y24702D01*
X36731Y32746D02*
X37251Y33265D01*
X35333Y32746D02*
X36731D01*
X34465Y33614D02*
X35333Y32746D01*
X37251Y33265D02*
Y39837D01*
X49308Y18403D02*
X50538Y19633D01*
X47290Y27065D02*
X49948Y24407D01*
X49259Y22242D02*
X49948Y22931D01*
Y24407D01*
X33461Y34151D02*
X33511Y34102D01*
X33461Y34151D02*
Y37256D01*
X20865Y14614D02*
Y17322D01*
X23751Y20208D02*
X45617D01*
X20865Y17322D02*
X23751Y20208D01*
X19928Y17960D02*
X23176Y21208D01*
X19865Y14614D02*
X19928Y14677D01*
Y17960D01*
X21865Y14614D02*
Y17092D01*
X23981Y19208D02*
X45617D01*
X21865Y17092D02*
X23981Y19208D01*
X23176Y21208D02*
X45617D01*
X18865Y18570D02*
X22503Y22208D01*
X18865Y14614D02*
Y18570D01*
X22503Y22208D02*
X45617D01*
X45014Y31311D02*
X45085Y31240D01*
X43654Y32423D02*
X44766Y31311D01*
X45014D01*
X44337Y33988D02*
X45085Y33240D01*
X33461Y37256D02*
X36674Y40469D01*
X37743D01*
X38235Y39837D02*
Y39976D01*
X37938Y40273D02*
X38235Y39976D01*
X37938Y40273D02*
Y40274D01*
X37743Y40469D02*
X37938Y40274D01*
D37*
X49391Y38958D02*
Y41992D01*
X47438Y37006D02*
X49391Y38958D01*
X47438Y34545D02*
Y37006D01*
Y34545D02*
X48561Y33421D01*
X49904D02*
X50085Y33240D01*
X48561Y33421D02*
X49904D01*
X23520Y37498D02*
Y37694D01*
Y36513D02*
Y37498D01*
X37723Y42832D02*
X48550D01*
X49391Y41992D01*
X50085Y32240D02*
Y33240D01*
X35331Y41257D02*
Y42911D01*
X31572Y37498D02*
X35331Y41257D01*
X30607Y37498D02*
X31572D01*
X35410Y42832D02*
X37723D01*
X39122Y39934D02*
Y41433D01*
X37723Y42832D02*
X39122Y41433D01*
X35331Y42911D02*
X35410Y42832D01*
X39122Y39934D02*
X39219Y39837D01*
X30607Y36513D02*
Y37498D01*
X18097Y40893D02*
X20322D01*
X23520Y37694D01*
X18097Y40893D02*
Y41193D01*
X19505Y42601D01*
Y42832D01*
X19583Y42911D01*
D38*
X33365Y33614D02*
X33465D01*
D39*
X13875Y37153D02*
D03*
Y13925D02*
D03*
X50095D02*
D03*
Y37153D02*
D03*
D40*
X13146Y13689D02*
D03*
X13527Y13243D02*
D03*
X14111Y13196D02*
D03*
X14557Y13577D02*
D03*
X14603Y14161D02*
D03*
X14223Y14607D02*
D03*
X13639Y14653D02*
D03*
X13193Y14273D02*
D03*
X49413D02*
D03*
X49859Y14653D02*
D03*
X50443Y14607D02*
D03*
X50824Y14161D02*
D03*
X50777Y13577D02*
D03*
X50332Y13196D02*
D03*
X49747Y13243D02*
D03*
X49367Y13689D02*
D03*
X49413Y37550D02*
D03*
X49859Y37931D02*
D03*
X50443Y37884D02*
D03*
X50824Y37439D02*
D03*
X50777Y36854D02*
D03*
X50332Y36474D02*
D03*
X49747Y36520D02*
D03*
X49367Y36966D02*
D03*
X13193Y37501D02*
D03*
X13639Y37882D02*
D03*
X14223Y37835D02*
D03*
X14603Y37389D02*
D03*
X14557Y36805D02*
D03*
X14111Y36425D02*
D03*
X13527Y36471D02*
D03*
X13146Y36917D02*
D03*
D41*
X15815Y23614D02*
D03*
X16815D02*
D03*
X15815Y24614D02*
D03*
X16815D02*
D03*
X15815Y25614D02*
D03*
X16815D02*
D03*
X23865Y33614D02*
D03*
X22865D02*
D03*
X21865D02*
D03*
X20865D02*
D03*
X19865D02*
D03*
X18865D02*
D03*
X17865D02*
D03*
X16865D02*
D03*
X34465D02*
D03*
X33465D02*
D03*
X32465D02*
D03*
X31465D02*
D03*
X30465D02*
D03*
X29465D02*
D03*
X28465D02*
D03*
X27465D02*
D03*
X26465D02*
D03*
X25465D02*
D03*
X16865Y14614D02*
D03*
X17865D02*
D03*
X18865D02*
D03*
X19865D02*
D03*
X20865D02*
D03*
X21865D02*
D03*
X23865D02*
D03*
X24865D02*
D03*
X25865D02*
D03*
X26865D02*
D03*
X27865D02*
D03*
X28865D02*
D03*
X29865D02*
D03*
X30865D02*
D03*
D42*
X15865Y27614D02*
D03*
Y16614D02*
D03*
X35865Y33614D02*
D03*
X36365Y14614D02*
D03*
D43*
X49391Y40007D02*
D03*
X50391D02*
D03*
D44*
X48391D02*
D03*
D45*
X19583Y35824D02*
D03*
X35331D02*
D03*
X19583Y42911D02*
D03*
X35331D02*
D03*
D46*
X42943Y39837D02*
D03*
X37251D02*
D03*
D47*
X43928D02*
D03*
X44912D02*
D03*
X45896D02*
D03*
X40204D02*
D03*
X39219D02*
D03*
X38235D02*
D03*
X49259Y22242D02*
D03*
X49308Y18403D02*
D03*
D48*
X18097Y40893D02*
D03*
X15597D02*
D03*
D49*
X17097Y38893D02*
D03*
D50*
X30607Y42025D02*
D03*
Y41041D02*
D03*
X23520Y42025D02*
D03*
Y41041D02*
D03*
D51*
X30607Y37498D02*
D03*
Y36513D02*
D03*
X23520Y37498D02*
D03*
Y36513D02*
D03*
D52*
X45617Y19208D02*
D03*
D53*
Y20208D02*
D03*
Y21208D02*
D03*
Y22208D02*
D03*
Y23208D02*
D03*
Y24208D02*
D03*
Y25208D02*
D03*
Y26208D02*
D03*
D54*
X50085Y31240D02*
D03*
X45085D02*
D03*
X50085Y32240D02*
D03*
Y33240D02*
D03*
Y34240D02*
D03*
Y35240D02*
D03*
Y30240D02*
D03*
Y29240D02*
D03*
X45085Y30240D02*
D03*
Y29240D02*
D03*
Y28240D02*
D03*
Y32240D02*
D03*
Y33240D02*
D03*
Y34240D02*
D03*
Y35240D02*
D03*
D55*
X50085Y28240D02*
D03*
D56*
X49259Y23226D02*
D03*
X49308Y19387D02*
D03*
D57*
X33271Y30861D02*
D03*
X29278Y30854D02*
D03*
M02*
