G04*
G04 #@! TF.GenerationSoftware,Altium Limited,Altium Designer,22.10.1 (41)*
G04*
G04 Layer_Color=8388736*
%FSLAX24Y24*%
%MOIN*%
G70*
G04*
G04 #@! TF.SameCoordinates,5266F301-D4F6-43A7-B3E8-B4584DB96D65*
G04*
G04*
G04 #@! TF.FilePolarity,Negative*
G04*
G01*
G75*
%ADD18C,0.2049*%
%ADD19C,0.0277*%
%ADD20R,0.0986X0.0986*%
%ADD21C,0.1340*%
%ADD22O,0.0780X0.0830*%
%ADD23R,0.0780X0.0780*%
%ADD24R,0.1024X0.1024*%
%ADD25R,0.0867X0.0867*%
%ADD26C,0.0867*%
%ADD27R,0.1080X0.1680*%
%ADD28R,0.1680X0.1080*%
%ADD29C,0.0671*%
%ADD30R,0.0671X0.0671*%
%ADD31R,0.0710X0.0710*%
%ADD32C,0.0710*%
%ADD33C,0.0730*%
%ADD34R,0.0730X0.0730*%
%ADD35P,0.0939X8X22.5*%
D18*
X13875Y37153D02*
D03*
Y13925D02*
D03*
X50095D02*
D03*
Y37153D02*
D03*
D19*
X13146Y13689D02*
D03*
X13527Y13243D02*
D03*
X14111Y13196D02*
D03*
X14557Y13577D02*
D03*
X14603Y14161D02*
D03*
X14223Y14607D02*
D03*
X13639Y14653D02*
D03*
X13193Y14273D02*
D03*
X49413D02*
D03*
X49859Y14653D02*
D03*
X50443Y14607D02*
D03*
X50824Y14161D02*
D03*
X50777Y13577D02*
D03*
X50332Y13196D02*
D03*
X49747Y13243D02*
D03*
X49367Y13689D02*
D03*
X49413Y37550D02*
D03*
X49859Y37931D02*
D03*
X50443Y37884D02*
D03*
X50824Y37439D02*
D03*
X50777Y36854D02*
D03*
X50332Y36474D02*
D03*
X49747Y36520D02*
D03*
X49367Y36966D02*
D03*
X13193Y37501D02*
D03*
X13639Y37882D02*
D03*
X14223Y37835D02*
D03*
X14603Y37389D02*
D03*
X14557Y36805D02*
D03*
X14111Y36425D02*
D03*
X13527Y36471D02*
D03*
X13146Y36917D02*
D03*
D20*
X15815Y23614D02*
D03*
X16815D02*
D03*
X15815Y24614D02*
D03*
X16815D02*
D03*
X15815Y25614D02*
D03*
X16815D02*
D03*
X23865Y33614D02*
D03*
X22865D02*
D03*
X21865D02*
D03*
X20865D02*
D03*
X19865D02*
D03*
X18865D02*
D03*
X17865D02*
D03*
X16865D02*
D03*
X34465D02*
D03*
X33465D02*
D03*
X32465D02*
D03*
X31465D02*
D03*
X30465D02*
D03*
X29465D02*
D03*
X28465D02*
D03*
X27465D02*
D03*
X26465D02*
D03*
X25465D02*
D03*
X16865Y14614D02*
D03*
X17865D02*
D03*
X18865D02*
D03*
X19865D02*
D03*
X20865D02*
D03*
X21865D02*
D03*
X23865D02*
D03*
X24865D02*
D03*
X25865D02*
D03*
X26865D02*
D03*
X27865D02*
D03*
X28865D02*
D03*
X29865D02*
D03*
X30865D02*
D03*
D21*
X15865Y27614D02*
D03*
Y16614D02*
D03*
X35865Y33614D02*
D03*
X36365Y14614D02*
D03*
D22*
X49391Y40007D02*
D03*
X50391D02*
D03*
D23*
X48391D02*
D03*
D24*
X19583Y35824D02*
D03*
X35331D02*
D03*
X19583Y42911D02*
D03*
X35331D02*
D03*
D25*
X42943Y39837D02*
D03*
X37251D02*
D03*
D26*
X43928D02*
D03*
X44912D02*
D03*
X45896D02*
D03*
X40204D02*
D03*
X39219D02*
D03*
X38235D02*
D03*
X49259Y22242D02*
D03*
X49308Y18403D02*
D03*
D27*
X18097Y40893D02*
D03*
X15597D02*
D03*
D28*
X17097Y38893D02*
D03*
D29*
X30607Y42025D02*
D03*
Y41041D02*
D03*
X23520Y42025D02*
D03*
Y41041D02*
D03*
D30*
X30607Y37498D02*
D03*
Y36513D02*
D03*
X23520Y37498D02*
D03*
Y36513D02*
D03*
D31*
X45617Y19208D02*
D03*
D32*
Y20208D02*
D03*
Y21208D02*
D03*
Y22208D02*
D03*
Y23208D02*
D03*
Y24208D02*
D03*
Y25208D02*
D03*
Y26208D02*
D03*
D33*
X50085Y31240D02*
D03*
X45085D02*
D03*
X50085Y32240D02*
D03*
Y33240D02*
D03*
Y34240D02*
D03*
Y35240D02*
D03*
Y30240D02*
D03*
Y29240D02*
D03*
X45085Y30240D02*
D03*
Y29240D02*
D03*
Y28240D02*
D03*
Y32240D02*
D03*
Y33240D02*
D03*
Y34240D02*
D03*
Y35240D02*
D03*
D34*
X50085Y28240D02*
D03*
D35*
X49259Y23226D02*
D03*
X49308Y19387D02*
D03*
M02*
