G04*
G04 #@! TF.GenerationSoftware,Altium Limited,Altium Designer,22.10.1 (41)*
G04*
G04 Layer_Color=16711935*
%FSLAX24Y24*%
%MOIN*%
G70*
G04*
G04 #@! TF.SameCoordinates,5266F301-D4F6-43A7-B3E8-B4584DB96D65*
G04*
G04*
G04 #@! TF.FilePolarity,Positive*
G04*
G01*
G75*
%ADD65C,0.0039*%
G36*
X20846Y42478D02*
X20754D01*
Y43069D01*
X20752Y43068D01*
X20747Y43064D01*
X20740Y43057D01*
X20729Y43050D01*
X20717Y43040D01*
X20702Y43029D01*
X20685Y43017D01*
X20665Y43005D01*
X20664D01*
X20663Y43004D01*
X20656Y42999D01*
X20645Y42994D01*
X20632Y42987D01*
X20617Y42980D01*
X20601Y42972D01*
X20584Y42964D01*
X20568Y42958D01*
Y43047D01*
X20569D01*
X20571Y43050D01*
X20575Y43051D01*
X20581Y43054D01*
X20587Y43057D01*
X20595Y43062D01*
X20614Y43073D01*
X20635Y43085D01*
X20657Y43100D01*
X20680Y43117D01*
X20703Y43136D01*
X20704Y43137D01*
X20705Y43138D01*
X20709Y43141D01*
X20713Y43145D01*
X20723Y43156D01*
X20736Y43169D01*
X20749Y43184D01*
X20763Y43202D01*
X20775Y43219D01*
X20786Y43238D01*
X20846D01*
Y42478D01*
D02*
G37*
G36*
X20772Y36622D02*
X20781Y36621D01*
X20792Y36620D01*
X20804Y36618D01*
X20816Y36616D01*
X20844Y36608D01*
X20873Y36597D01*
X20887Y36591D01*
X20901Y36583D01*
X20914Y36573D01*
X20926Y36562D01*
X20927Y36561D01*
X20929Y36560D01*
X20932Y36556D01*
X20936Y36551D01*
X20941Y36546D01*
X20947Y36538D01*
X20952Y36531D01*
X20959Y36521D01*
X20970Y36500D01*
X20981Y36474D01*
X20985Y36461D01*
X20987Y36445D01*
X20990Y36430D01*
X20991Y36414D01*
Y36411D01*
Y36406D01*
X20990Y36397D01*
X20988Y36385D01*
X20986Y36372D01*
X20982Y36357D01*
X20978Y36340D01*
X20971Y36324D01*
X20970Y36322D01*
X20968Y36316D01*
X20963Y36308D01*
X20957Y36296D01*
X20948Y36282D01*
X20937Y36266D01*
X20924Y36250D01*
X20909Y36231D01*
X20907Y36229D01*
X20901Y36222D01*
X20896Y36217D01*
X20890Y36211D01*
X20884Y36205D01*
X20875Y36196D01*
X20866Y36187D01*
X20855Y36177D01*
X20844Y36167D01*
X20831Y36155D01*
X20817Y36142D01*
X20802Y36128D01*
X20784Y36114D01*
X20767Y36099D01*
X20766Y36098D01*
X20763Y36095D01*
X20759Y36092D01*
X20753Y36088D01*
X20747Y36081D01*
X20739Y36075D01*
X20722Y36061D01*
X20703Y36044D01*
X20686Y36028D01*
X20670Y36014D01*
X20664Y36008D01*
X20658Y36003D01*
X20657Y36002D01*
X20654Y35998D01*
X20650Y35994D01*
X20644Y35987D01*
X20639Y35980D01*
X20632Y35972D01*
X20619Y35953D01*
X20992D01*
Y35864D01*
X20490D01*
Y35865D01*
Y35869D01*
Y35876D01*
X20491Y35885D01*
X20492Y35894D01*
X20494Y35905D01*
X20497Y35916D01*
X20501Y35928D01*
Y35929D01*
X20502Y35930D01*
X20504Y35937D01*
X20509Y35947D01*
X20515Y35960D01*
X20524Y35975D01*
X20535Y35993D01*
X20547Y36010D01*
X20562Y36029D01*
Y36030D01*
X20564Y36031D01*
X20570Y36038D01*
X20580Y36047D01*
X20594Y36062D01*
X20610Y36078D01*
X20631Y36098D01*
X20656Y36120D01*
X20684Y36142D01*
X20685Y36144D01*
X20689Y36147D01*
X20696Y36152D01*
X20703Y36159D01*
X20713Y36168D01*
X20725Y36177D01*
X20737Y36188D01*
X20751Y36200D01*
X20779Y36227D01*
X20806Y36253D01*
X20819Y36266D01*
X20831Y36279D01*
X20842Y36291D01*
X20851Y36303D01*
Y36304D01*
X20853Y36305D01*
X20855Y36309D01*
X20857Y36313D01*
X20865Y36325D01*
X20874Y36339D01*
X20881Y36357D01*
X20889Y36375D01*
X20893Y36396D01*
X20896Y36416D01*
Y36417D01*
Y36418D01*
X20894Y36424D01*
X20893Y36435D01*
X20890Y36447D01*
X20886Y36463D01*
X20878Y36478D01*
X20868Y36493D01*
X20855Y36509D01*
X20853Y36511D01*
X20847Y36515D01*
X20840Y36521D01*
X20828Y36528D01*
X20813Y36535D01*
X20795Y36541D01*
X20774Y36546D01*
X20751Y36547D01*
X20745D01*
X20740Y36546D01*
X20727Y36545D01*
X20712Y36541D01*
X20696Y36537D01*
X20677Y36529D01*
X20659Y36520D01*
X20643Y36506D01*
X20641Y36504D01*
X20637Y36499D01*
X20630Y36490D01*
X20623Y36477D01*
X20616Y36462D01*
X20609Y36442D01*
X20605Y36420D01*
X20603Y36395D01*
X20508Y36405D01*
Y36406D01*
X20509Y36409D01*
Y36415D01*
X20510Y36422D01*
X20512Y36431D01*
X20514Y36441D01*
X20517Y36453D01*
X20521Y36465D01*
X20529Y36491D01*
X20543Y36517D01*
X20550Y36531D01*
X20560Y36544D01*
X20570Y36556D01*
X20581Y36567D01*
X20582Y36568D01*
X20584Y36569D01*
X20587Y36572D01*
X20593Y36575D01*
X20599Y36580D01*
X20607Y36584D01*
X20616Y36590D01*
X20627Y36595D01*
X20639Y36600D01*
X20652Y36606D01*
X20666Y36610D01*
X20681Y36615D01*
X20698Y36618D01*
X20715Y36621D01*
X20734Y36622D01*
X20753Y36623D01*
X20764D01*
X20772Y36622D01*
D02*
G37*
G36*
X34449Y36701D02*
X34463Y36699D01*
X34481Y36696D01*
X34500Y36690D01*
X34520Y36684D01*
X34540Y36675D01*
X34541D01*
X34542Y36674D01*
X34548Y36670D01*
X34558Y36664D01*
X34569Y36656D01*
X34582Y36645D01*
X34595Y36633D01*
X34608Y36619D01*
X34619Y36603D01*
X34620Y36601D01*
X34624Y36595D01*
X34628Y36585D01*
X34634Y36573D01*
X34639Y36559D01*
X34643Y36543D01*
X34647Y36524D01*
X34648Y36505D01*
Y36503D01*
Y36497D01*
X34647Y36488D01*
X34644Y36476D01*
X34641Y36462D01*
X34636Y36446D01*
X34629Y36431D01*
X34620Y36416D01*
X34619Y36414D01*
X34616Y36409D01*
X34609Y36402D01*
X34601Y36393D01*
X34590Y36383D01*
X34577Y36372D01*
X34561Y36362D01*
X34543Y36352D01*
X34544D01*
X34546Y36351D01*
X34549Y36350D01*
X34554Y36349D01*
X34566Y36345D01*
X34581Y36338D01*
X34599Y36329D01*
X34616Y36319D01*
X34632Y36304D01*
X34648Y36288D01*
X34649Y36286D01*
X34653Y36279D01*
X34660Y36268D01*
X34666Y36254D01*
X34673Y36237D01*
X34679Y36216D01*
X34684Y36192D01*
X34685Y36165D01*
Y36164D01*
Y36161D01*
Y36156D01*
X34684Y36149D01*
X34683Y36140D01*
X34681Y36131D01*
X34678Y36120D01*
X34676Y36108D01*
X34667Y36081D01*
X34661Y36067D01*
X34654Y36054D01*
X34646Y36040D01*
X34636Y36026D01*
X34625Y36011D01*
X34612Y35998D01*
X34611Y35997D01*
X34608Y35995D01*
X34604Y35992D01*
X34599Y35987D01*
X34592Y35982D01*
X34583Y35976D01*
X34573Y35970D01*
X34561Y35964D01*
X34549Y35958D01*
X34535Y35951D01*
X34521Y35946D01*
X34505Y35940D01*
X34487Y35936D01*
X34468Y35933D01*
X34450Y35931D01*
X34429Y35929D01*
X34419D01*
X34413Y35931D01*
X34404Y35932D01*
X34394Y35933D01*
X34383Y35935D01*
X34371Y35937D01*
X34345Y35944D01*
X34318Y35955D01*
X34303Y35961D01*
X34290Y35969D01*
X34277Y35979D01*
X34264Y35988D01*
X34263Y35990D01*
X34261Y35992D01*
X34258Y35995D01*
X34254Y35999D01*
X34249Y36005D01*
X34243Y36012D01*
X34237Y36020D01*
X34230Y36030D01*
X34224Y36041D01*
X34217Y36052D01*
X34205Y36078D01*
X34195Y36109D01*
X34192Y36125D01*
X34190Y36143D01*
X34283Y36155D01*
Y36153D01*
X34284Y36151D01*
X34285Y36147D01*
X34286Y36141D01*
X34287Y36135D01*
X34289Y36127D01*
X34295Y36111D01*
X34302Y36091D01*
X34312Y36073D01*
X34323Y36055D01*
X34336Y36040D01*
X34338Y36039D01*
X34343Y36034D01*
X34352Y36029D01*
X34362Y36023D01*
X34376Y36017D01*
X34392Y36011D01*
X34411Y36007D01*
X34430Y36006D01*
X34437D01*
X34441Y36007D01*
X34453Y36008D01*
X34468Y36011D01*
X34486Y36017D01*
X34505Y36024D01*
X34523Y36035D01*
X34541Y36051D01*
X34543Y36053D01*
X34548Y36059D01*
X34555Y36069D01*
X34564Y36082D01*
X34572Y36099D01*
X34579Y36117D01*
X34584Y36139D01*
X34587Y36163D01*
Y36164D01*
Y36167D01*
Y36170D01*
X34585Y36174D01*
X34584Y36186D01*
X34581Y36200D01*
X34577Y36218D01*
X34569Y36235D01*
X34558Y36253D01*
X34544Y36269D01*
X34542Y36272D01*
X34536Y36276D01*
X34527Y36282D01*
X34515Y36290D01*
X34500Y36298D01*
X34482Y36304D01*
X34461Y36309D01*
X34438Y36311D01*
X34428D01*
X34420Y36310D01*
X34411Y36309D01*
X34400Y36306D01*
X34387Y36304D01*
X34372Y36301D01*
X34383Y36383D01*
X34389D01*
X34393Y36382D01*
X34407D01*
X34419Y36384D01*
X34434Y36386D01*
X34450Y36390D01*
X34468Y36395D01*
X34486Y36403D01*
X34505Y36413D01*
X34506D01*
X34507Y36414D01*
X34512Y36418D01*
X34520Y36426D01*
X34529Y36435D01*
X34537Y36450D01*
X34545Y36466D01*
X34550Y36485D01*
X34553Y36496D01*
Y36508D01*
Y36509D01*
Y36510D01*
Y36516D01*
X34550Y36525D01*
X34548Y36537D01*
X34544Y36550D01*
X34538Y36564D01*
X34530Y36579D01*
X34518Y36592D01*
X34517Y36593D01*
X34511Y36597D01*
X34503Y36603D01*
X34494Y36609D01*
X34481Y36615D01*
X34465Y36620D01*
X34448Y36625D01*
X34428Y36626D01*
X34419D01*
X34409Y36623D01*
X34396Y36621D01*
X34382Y36617D01*
X34368Y36611D01*
X34353Y36603D01*
X34338Y36592D01*
X34337Y36591D01*
X34333Y36585D01*
X34326Y36578D01*
X34319Y36567D01*
X34311Y36552D01*
X34303Y36535D01*
X34297Y36514D01*
X34293Y36490D01*
X34200Y36507D01*
Y36508D01*
X34201Y36511D01*
X34202Y36515D01*
X34203Y36522D01*
X34205Y36529D01*
X34208Y36538D01*
X34215Y36559D01*
X34226Y36583D01*
X34239Y36607D01*
X34255Y36630D01*
X34276Y36651D01*
X34277Y36652D01*
X34279Y36653D01*
X34283Y36655D01*
X34287Y36658D01*
X34293Y36663D01*
X34300Y36667D01*
X34308Y36672D01*
X34318Y36677D01*
X34340Y36686D01*
X34365Y36695D01*
X34394Y36700D01*
X34409Y36702D01*
X34437D01*
X34449Y36701D01*
D02*
G37*
G36*
X34533Y42548D02*
X34636D01*
Y42463D01*
X34533D01*
Y42281D01*
X34440D01*
Y42463D01*
X34111D01*
Y42548D01*
X34458Y43037D01*
X34533D01*
Y42548D01*
D02*
G37*
%LPC*%
G36*
X34440Y42887D02*
X34202Y42548D01*
X34440D01*
Y42887D01*
D02*
G37*
%LPD*%
D65*
X18993Y35431D02*
X35922D01*
X18993D02*
X18993Y43305D01*
X35922Y43305D01*
Y35431D02*
Y43305D01*
M02*
