G04*
G04 #@! TF.GenerationSoftware,Altium Limited,Altium Designer,22.10.1 (41)*
G04*
G04 Layer_Color=32896*
%FSLAX24Y24*%
%MOIN*%
G70*
G04*
G04 #@! TF.SameCoordinates,5266F301-D4F6-43A7-B3E8-B4584DB96D65*
G04*
G04*
G04 #@! TF.FilePolarity,Positive*
G04*
G01*
G75*
%ADD11C,0.0100*%
%ADD38C,0.0120*%
%ADD58C,0.0060*%
%ADD59C,0.0057*%
%ADD60C,0.0041*%
%ADD61C,0.0084*%
%ADD62C,0.0048*%
%ADD63C,0.0064*%
%ADD64C,0.0049*%
D11*
X15865Y14014D02*
G03*
X16255Y13614I395J-5D01*
G01*
X41465D02*
G03*
X41865Y14014I0J400D01*
G01*
Y34224D02*
G03*
X41465Y34614I-395J-5D01*
G01*
X16465D02*
X41465D01*
X15865Y34014D02*
X16465Y34614D01*
X15865Y29514D02*
Y34014D01*
X14865Y15614D02*
Y28514D01*
Y15614D02*
X15865Y14614D01*
Y14014D02*
Y14614D01*
X16255Y13614D02*
X41465D01*
X41865Y14014D02*
Y34224D01*
X14865Y28514D02*
X15865Y29514D01*
X15910Y35560D02*
Y35060D01*
X15810Y34960D01*
X15610D01*
X15510Y35060D01*
Y35560D01*
X14910Y34960D02*
X15310D01*
X14910Y35360D01*
Y35460D01*
X15010Y35560D01*
X15210D01*
X15310Y35460D01*
D38*
X17515Y31764D02*
X18215D01*
X17515D02*
X17865Y32114D01*
X18215Y31764D01*
X16465Y32114D02*
X17165D01*
X16815Y31764D02*
X17165Y32114D01*
X16465D02*
X16815Y31764D01*
X17865Y32014D02*
X18065Y31814D01*
X17665D02*
X17865Y32014D01*
X17665Y31814D02*
X17965D01*
X17815Y31914D02*
X17965Y31814D01*
X16615Y32064D02*
X17015D01*
X16615D02*
X16815Y31864D01*
X16965Y32014D01*
X16765D02*
X16965D01*
X16815Y31914D02*
Y31964D01*
X26715Y31364D02*
X29915D01*
X30365Y31814D01*
X19315Y31364D02*
X22515D01*
X18865Y31814D02*
X19315Y31364D01*
D58*
X17315Y23364D02*
Y23864D01*
X15565Y23114D02*
X17065D01*
X15315Y23364D02*
X15565Y23114D01*
X15315Y23364D02*
Y23864D01*
X15565Y24114D01*
X17065Y23114D02*
X17315Y23364D01*
X17065Y24114D02*
X17315Y23864D01*
Y25364D02*
Y25864D01*
Y24364D02*
Y24864D01*
X15565Y24114D02*
X17065D01*
X15565Y25114D02*
X17065D01*
X15315Y24364D02*
X15565Y24114D01*
X15315Y24364D02*
Y24864D01*
X15565Y25114D01*
X15315Y25364D02*
X15565Y25114D01*
X15315Y25364D02*
Y25864D01*
X15565Y26114D01*
X17065D01*
Y24114D02*
X17315Y24364D01*
X17065Y25114D02*
X17315Y24864D01*
X17065Y25114D02*
X17315Y25364D01*
X17065Y26114D02*
X17315Y25864D01*
X23615Y34114D02*
X24115D01*
X23365Y33864D02*
X23615Y34114D01*
X23365Y33364D02*
X23615Y33114D01*
X24115Y34114D02*
X24365Y33864D01*
Y33364D02*
Y33864D01*
X24115Y33114D02*
X24365Y33364D01*
X23615Y33114D02*
X24115D01*
X16615Y34114D02*
X17115D01*
X16365Y33864D02*
X16615Y34114D01*
X16365Y33364D02*
X16615Y33114D01*
X16365Y33364D02*
Y33864D01*
X17365D02*
X17615Y34114D01*
X18115D01*
X18365Y33864D01*
Y33364D02*
Y33864D01*
X18115Y33114D02*
X18365Y33364D01*
X17615Y33114D02*
X18115D01*
X17365Y33364D02*
X17615Y33114D01*
X17115Y34114D02*
X17365Y33864D01*
Y33364D02*
Y33864D01*
X17115Y33114D02*
X17365Y33364D01*
X16615Y33114D02*
X17115D01*
X19615Y34114D02*
X20115D01*
X19365Y33864D02*
X19615Y34114D01*
X19365Y33364D02*
X19615Y33114D01*
X18365Y33864D02*
X18615Y34114D01*
X19115D01*
X19365Y33864D01*
Y33364D02*
Y33864D01*
X19115Y33114D02*
X19365Y33364D01*
X18615Y33114D02*
X19115D01*
X18365Y33364D02*
X18615Y33114D01*
X20365Y33864D02*
X20615Y34114D01*
X21115D01*
X21365Y33864D01*
Y33364D02*
Y33864D01*
X21115Y33114D02*
X21365Y33364D01*
X20615Y33114D02*
X21115D01*
X20365Y33364D02*
X20615Y33114D01*
X20115Y34114D02*
X20365Y33864D01*
Y33364D02*
Y33864D01*
X20115Y33114D02*
X20365Y33364D01*
X19615Y33114D02*
X20115D01*
X22615Y34114D02*
X23115D01*
X22365Y33864D02*
X22615Y34114D01*
X22365Y33364D02*
X22615Y33114D01*
X21365Y33864D02*
X21615Y34114D01*
X22115D01*
X22365Y33864D01*
Y33364D02*
Y33864D01*
X22115Y33114D02*
X22365Y33364D01*
X21615Y33114D02*
X22115D01*
X21365Y33364D02*
X21615Y33114D01*
X23115Y34114D02*
X23365Y33864D01*
Y33364D02*
Y33864D01*
X23115Y33114D02*
X23365Y33364D01*
X22615Y33114D02*
X23115D01*
X34215Y34114D02*
X34715D01*
X33965Y33864D02*
X34215Y34114D01*
X33965Y33364D02*
X34215Y33114D01*
X34715Y34114D02*
X34965Y33864D01*
Y33364D02*
Y33864D01*
X34715Y33114D02*
X34965Y33364D01*
X34215Y33114D02*
X34715D01*
X25215Y34114D02*
X25715D01*
X24965Y33864D02*
X25215Y34114D01*
X24965Y33364D02*
X25215Y33114D01*
X24965Y33364D02*
Y33864D01*
X25965D02*
X26215Y34114D01*
X26715D01*
X26965Y33864D01*
Y33364D02*
Y33864D01*
X26715Y33114D02*
X26965Y33364D01*
X26215Y33114D02*
X26715D01*
X25965Y33364D02*
X26215Y33114D01*
X25715Y34114D02*
X25965Y33864D01*
Y33364D02*
Y33864D01*
X25715Y33114D02*
X25965Y33364D01*
X25215Y33114D02*
X25715D01*
X28215Y34114D02*
X28715D01*
X27965Y33864D02*
X28215Y34114D01*
X27965Y33364D02*
X28215Y33114D01*
X26965Y33864D02*
X27215Y34114D01*
X27715D01*
X27965Y33864D01*
Y33364D02*
Y33864D01*
X27715Y33114D02*
X27965Y33364D01*
X27215Y33114D02*
X27715D01*
X26965Y33364D02*
X27215Y33114D01*
X28965Y33864D02*
X29215Y34114D01*
X29715D01*
X29965Y33864D01*
Y33364D02*
Y33864D01*
X29715Y33114D02*
X29965Y33364D01*
X29215Y33114D02*
X29715D01*
X28965Y33364D02*
X29215Y33114D01*
X28715Y34114D02*
X28965Y33864D01*
Y33364D02*
Y33864D01*
X28715Y33114D02*
X28965Y33364D01*
X28215Y33114D02*
X28715D01*
X31215Y34114D02*
X31715D01*
X30965Y33864D02*
X31215Y34114D01*
X30965Y33364D02*
X31215Y33114D01*
X29965Y33864D02*
X30215Y34114D01*
X30715D01*
X30965Y33864D01*
Y33364D02*
Y33864D01*
X30715Y33114D02*
X30965Y33364D01*
X30215Y33114D02*
X30715D01*
X29965Y33364D02*
X30215Y33114D01*
X31965Y33864D02*
X32215Y34114D01*
X32715D01*
X32965Y33864D01*
Y33364D02*
Y33864D01*
X32715Y33114D02*
X32965Y33364D01*
X32215Y33114D02*
X32715D01*
X31965Y33364D02*
X32215Y33114D01*
X31715Y34114D02*
X31965Y33864D01*
Y33364D02*
Y33864D01*
X31715Y33114D02*
X31965Y33364D01*
X31215Y33114D02*
X31715D01*
X32965Y33864D02*
X33215Y34114D01*
X33715D01*
X33965Y33864D01*
Y33364D02*
Y33864D01*
X33715Y33114D02*
X33965Y33364D01*
X33215Y33114D02*
X33715D01*
X32965Y33364D02*
X33215Y33114D01*
X16615Y14114D02*
X17115D01*
X17365Y14364D01*
X17115Y15114D02*
X17365Y14864D01*
X16365Y14364D02*
X16615Y14114D01*
X16365Y14364D02*
Y14864D01*
X16615Y15114D01*
X17115D01*
X21615Y14114D02*
X22115D01*
X22365Y14364D01*
X22115Y15114D02*
X22365Y14864D01*
Y14364D02*
Y14864D01*
X21115Y14114D02*
X21365Y14364D01*
X20615Y14114D02*
X21115D01*
X20365Y14364D02*
X20615Y14114D01*
X20365Y14364D02*
Y14864D01*
X20615Y15114D01*
X21115D01*
X21365Y14864D01*
Y14364D02*
X21615Y14114D01*
X21365Y14364D02*
Y14864D01*
X21615Y15114D01*
X22115D01*
X18615Y14114D02*
X19115D01*
X19365Y14364D01*
X19115Y15114D02*
X19365Y14864D01*
X20115Y14114D02*
X20365Y14364D01*
X19615Y14114D02*
X20115D01*
X19365Y14364D02*
X19615Y14114D01*
X19365Y14364D02*
Y14864D01*
X19615Y15114D01*
X20115D01*
X20365Y14864D01*
X18115Y14114D02*
X18365Y14364D01*
X17615Y14114D02*
X18115D01*
X17365Y14364D02*
X17615Y14114D01*
X17365Y14364D02*
Y14864D01*
X17615Y15114D01*
X18115D01*
X18365Y14864D01*
Y14364D02*
X18615Y14114D01*
X18365Y14364D02*
Y14864D01*
X18615Y15114D01*
X19115D01*
X23615Y14114D02*
X24115D01*
X24365Y14364D01*
X24115Y15114D02*
X24365Y14864D01*
X23365Y14364D02*
X23615Y14114D01*
X23365Y14364D02*
Y14864D01*
X23615Y15114D01*
X24115D01*
X30615Y14114D02*
X31115D01*
X31365Y14364D01*
X31115Y15114D02*
X31365Y14864D01*
Y14364D02*
Y14864D01*
X30115Y14114D02*
X30365Y14364D01*
X29615Y14114D02*
X30115D01*
X29365Y14364D02*
X29615Y14114D01*
X29365Y14364D02*
Y14864D01*
X29615Y15114D01*
X30115D01*
X30365Y14864D01*
Y14364D02*
X30615Y14114D01*
X30365Y14364D02*
Y14864D01*
X30615Y15114D01*
X31115D01*
X27615Y14114D02*
X28115D01*
X28365Y14364D01*
X28115Y15114D02*
X28365Y14864D01*
X29115Y14114D02*
X29365Y14364D01*
X28615Y14114D02*
X29115D01*
X28365Y14364D02*
X28615Y14114D01*
X28365Y14364D02*
Y14864D01*
X28615Y15114D01*
X29115D01*
X29365Y14864D01*
X27115Y14114D02*
X27365Y14364D01*
X26615Y14114D02*
X27115D01*
X26365Y14364D02*
X26615Y14114D01*
X26365Y14364D02*
Y14864D01*
X26615Y15114D01*
X27115D01*
X27365Y14864D01*
Y14364D02*
X27615Y14114D01*
X27365Y14364D02*
Y14864D01*
X27615Y15114D01*
X28115D01*
X24615Y14114D02*
X25115D01*
X25365Y14364D01*
X25115Y15114D02*
X25365Y14864D01*
X26115Y14114D02*
X26365Y14364D01*
X25615Y14114D02*
X26115D01*
X25365Y14364D02*
X25615Y14114D01*
X25365Y14364D02*
Y14864D01*
X25615Y15114D01*
X26115D01*
X26365Y14864D01*
X24365Y14364D02*
X24615Y14114D01*
X24365Y14364D02*
Y14864D01*
X24615Y15114D01*
X25115D01*
D59*
X26998Y15790D02*
X27315D01*
Y15552D01*
X27156Y15631D01*
X27077D01*
X26998Y15552D01*
Y15393D01*
X27077Y15314D01*
X27236D01*
X27315Y15393D01*
X26839Y15790D02*
Y15472D01*
X26681Y15314D01*
X26522Y15472D01*
Y15790D01*
X24415D02*
Y15472D01*
X24256Y15314D01*
X24098Y15472D01*
Y15790D01*
X23939D02*
X23781D01*
X23860D01*
Y15314D01*
X23939D01*
X23781D01*
X23543D02*
Y15790D01*
X23225Y15314D01*
Y15790D01*
X25788Y15710D02*
X25867Y15790D01*
X26026D01*
X26105Y15710D01*
Y15393D01*
X26026Y15314D01*
X25867D01*
X25788Y15393D01*
Y15552D01*
X25946D01*
X25629Y15314D02*
Y15790D01*
X25312Y15314D01*
Y15790D01*
X25153D02*
Y15314D01*
X24915D01*
X24836Y15393D01*
Y15710D01*
X24915Y15790D01*
X25153D01*
X30289Y32200D02*
Y32359D01*
Y32279D01*
X30765D01*
X30686Y32200D01*
Y32597D02*
X30765Y32676D01*
Y32834D01*
X30686Y32914D01*
X30606D01*
X30527Y32834D01*
Y32755D01*
Y32834D01*
X30448Y32914D01*
X30368D01*
X30289Y32834D01*
Y32676D01*
X30368Y32597D01*
X29289Y32200D02*
Y32359D01*
Y32279D01*
X29765D01*
X29686Y32200D01*
X29289Y32914D02*
Y32597D01*
X29606Y32914D01*
X29686D01*
X29765Y32834D01*
Y32676D01*
X29686Y32597D01*
X28289Y32359D02*
Y32517D01*
Y32438D01*
X28765D01*
X28686Y32359D01*
X28289Y32755D02*
Y32914D01*
Y32834D01*
X28765D01*
X28686Y32755D01*
X27289Y32200D02*
Y32359D01*
Y32279D01*
X27765D01*
X27686Y32200D01*
Y32597D02*
X27765Y32676D01*
Y32834D01*
X27686Y32914D01*
X27368D01*
X27289Y32834D01*
Y32676D01*
X27368Y32597D01*
X27686D01*
X26368D02*
X26289Y32676D01*
Y32834D01*
X26368Y32914D01*
X26686D01*
X26765Y32834D01*
Y32676D01*
X26686Y32597D01*
X26606D01*
X26527Y32676D01*
Y32914D01*
X25686Y32597D02*
X25765Y32676D01*
Y32834D01*
X25686Y32914D01*
X25606D01*
X25527Y32834D01*
X25448Y32914D01*
X25368D01*
X25289Y32834D01*
Y32676D01*
X25368Y32597D01*
X25448D01*
X25527Y32676D01*
X25606Y32597D01*
X25686D01*
X25527Y32676D02*
Y32834D01*
X24165Y32597D02*
Y32914D01*
X24086D01*
X23768Y32597D01*
X23689D01*
X23165Y32914D02*
X23086Y32755D01*
X22927Y32597D01*
X22768D01*
X22689Y32676D01*
Y32834D01*
X22768Y32914D01*
X22848D01*
X22927Y32834D01*
Y32597D01*
X22165Y32914D02*
Y32597D01*
X21927D01*
X22006Y32755D01*
Y32834D01*
X21927Y32914D01*
X21768D01*
X21689Y32834D01*
Y32676D01*
X21768Y32597D01*
X20689Y32834D02*
X21165D01*
X20927Y32597D01*
Y32914D01*
X20086Y32597D02*
X20165Y32676D01*
Y32834D01*
X20086Y32914D01*
X20006D01*
X19927Y32834D01*
Y32755D01*
Y32834D01*
X19848Y32914D01*
X19768D01*
X19689Y32834D01*
Y32676D01*
X19768Y32597D01*
X18689Y32914D02*
Y32597D01*
X19006Y32914D01*
X19086D01*
X19165Y32834D01*
Y32676D01*
X19086Y32597D01*
X17689Y32755D02*
Y32914D01*
Y32834D01*
X18165D01*
X18086Y32755D01*
X17086Y32597D02*
X17165Y32676D01*
Y32834D01*
X17086Y32914D01*
X16768D01*
X16689Y32834D01*
Y32676D01*
X16768Y32597D01*
X17086D01*
D60*
X22175Y15324D02*
Y15550D01*
X22062Y15664D01*
X21948Y15550D01*
Y15324D01*
Y15494D01*
X22175D01*
X21835Y15607D02*
X21778Y15664D01*
X21665D01*
X21608Y15607D01*
Y15380D01*
X21665Y15324D01*
X21778D01*
X21835Y15380D01*
Y15607D01*
X21175Y15324D02*
Y15550D01*
X21062Y15664D01*
X20948Y15550D01*
Y15324D01*
Y15494D01*
X21175D01*
X20835Y15324D02*
X20722D01*
X20778D01*
Y15664D01*
X20835Y15607D01*
X20175Y15324D02*
Y15550D01*
X20062Y15664D01*
X19948Y15550D01*
Y15324D01*
Y15494D01*
X20175D01*
X19608Y15324D02*
X19835D01*
X19608Y15550D01*
Y15607D01*
X19665Y15664D01*
X19778D01*
X19835Y15607D01*
X19175Y15324D02*
Y15550D01*
X19062Y15664D01*
X18948Y15550D01*
Y15324D01*
Y15494D01*
X19175D01*
X18835Y15607D02*
X18778Y15664D01*
X18665D01*
X18608Y15607D01*
Y15550D01*
X18665Y15494D01*
X18722D01*
X18665D01*
X18608Y15437D01*
Y15380D01*
X18665Y15324D01*
X18778D01*
X18835Y15380D01*
X18175Y15324D02*
Y15550D01*
X18062Y15664D01*
X17948Y15550D01*
Y15324D01*
Y15494D01*
X18175D01*
X17665Y15324D02*
Y15664D01*
X17835Y15494D01*
X17608D01*
X17175Y15324D02*
Y15550D01*
X17062Y15664D01*
X16948Y15550D01*
Y15324D01*
Y15494D01*
X17175D01*
X16608Y15664D02*
X16835D01*
Y15494D01*
X16722Y15550D01*
X16665D01*
X16608Y15494D01*
Y15380D01*
X16665Y15324D01*
X16778D01*
X16835Y15380D01*
D61*
X21965Y16014D02*
Y16388D01*
X21778Y16575D01*
X21591Y16388D01*
Y16014D01*
Y16294D01*
X21965D01*
X21404Y16014D02*
Y16575D01*
X21030Y16014D01*
Y16575D01*
X20843Y16014D02*
Y16388D01*
X20656Y16575D01*
X20469Y16388D01*
Y16014D01*
Y16294D01*
X20843D01*
X20282Y16575D02*
Y16014D01*
X19909D01*
X19441Y16575D02*
X19628D01*
X19722Y16481D01*
Y16107D01*
X19628Y16014D01*
X19441D01*
X19348Y16107D01*
Y16481D01*
X19441Y16575D01*
X18787Y16481D02*
X18880Y16575D01*
X19067D01*
X19161Y16481D01*
Y16107D01*
X19067Y16014D01*
X18880D01*
X18787Y16107D01*
Y16294D01*
X18974D01*
X18039Y16575D02*
X17852D01*
X17946D01*
Y16014D01*
X18039D01*
X17852D01*
X17572D02*
Y16575D01*
X17198Y16014D01*
Y16575D01*
X26445Y31665D02*
Y31104D01*
X26165D01*
X26071Y31197D01*
Y31571D01*
X26165Y31665D01*
X26445D01*
X25884D02*
X25697D01*
X25791D01*
Y31104D01*
X25884D01*
X25697D01*
X25043Y31571D02*
X25136Y31665D01*
X25323D01*
X25417Y31571D01*
Y31197D01*
X25323Y31104D01*
X25136D01*
X25043Y31197D01*
Y31384D01*
X25230D01*
X24856Y31665D02*
X24669D01*
X24762D01*
Y31104D01*
X24856D01*
X24669D01*
X24389Y31665D02*
X24015D01*
X24202D01*
Y31104D01*
X23828D02*
Y31478D01*
X23641Y31665D01*
X23454Y31478D01*
Y31104D01*
Y31384D01*
X23828D01*
X23267Y31665D02*
Y31104D01*
X22893D01*
D62*
X32319Y31229D02*
X32636D01*
X32795Y31388D01*
X32636Y31546D01*
X32319D01*
X32557D01*
Y31229D01*
X32319Y31705D02*
X32795D01*
Y31943D01*
X32716Y32022D01*
X32557D01*
X32478Y31943D01*
Y31705D01*
Y31863D02*
X32319Y32022D01*
X32795Y32498D02*
Y32181D01*
X32319D01*
Y32498D01*
X32557Y32181D02*
Y32339D01*
X32795Y32974D02*
Y32657D01*
X32557D01*
Y32815D01*
Y32657D01*
X32319D01*
X31676Y32012D02*
X31755Y31933D01*
Y31774D01*
X31676Y31695D01*
X31358D01*
X31279Y31774D01*
Y31933D01*
X31358Y32012D01*
X31517D01*
Y31853D01*
X31279Y32171D02*
X31755D01*
X31279Y32488D01*
X31755D01*
Y32647D02*
X31279D01*
Y32884D01*
X31358Y32964D01*
X31676D01*
X31755Y32884D01*
Y32647D01*
X28765Y15364D02*
X29241D01*
Y15602D01*
X29162Y15681D01*
X29003D01*
X28924Y15602D01*
Y15364D01*
Y15522D02*
X28765Y15681D01*
X29241Y16157D02*
Y15840D01*
X28765D01*
Y16157D01*
X29003Y15840D02*
Y15998D01*
X29162Y16633D02*
X29241Y16553D01*
Y16395D01*
X29162Y16315D01*
X29082D01*
X29003Y16395D01*
Y16553D01*
X28924Y16633D01*
X28844D01*
X28765Y16553D01*
Y16395D01*
X28844Y16315D01*
X29241Y17109D02*
Y16791D01*
X28765D01*
Y17109D01*
X29003Y16791D02*
Y16950D01*
X29241Y17267D02*
Y17584D01*
Y17426D01*
X28765D01*
X28061Y15314D02*
X28141Y15393D01*
Y15552D01*
X28061Y15631D01*
X27982D01*
X27903Y15552D01*
Y15472D01*
Y15552D01*
X27824Y15631D01*
X27744D01*
X27665Y15552D01*
Y15393D01*
X27744Y15314D01*
X28141Y15790D02*
X27824D01*
X27665Y15948D01*
X27824Y16107D01*
X28141D01*
X28061Y16265D02*
X28141Y16345D01*
Y16503D01*
X28061Y16583D01*
X27982D01*
X27903Y16503D01*
Y16424D01*
Y16503D01*
X27824Y16583D01*
X27744D01*
X27665Y16503D01*
Y16345D01*
X27744Y16265D01*
X30091Y15364D02*
Y15522D01*
Y15443D01*
X29615D01*
Y15364D01*
Y15522D01*
X30091Y15998D02*
Y15840D01*
X30011Y15760D01*
X29694D01*
X29615Y15840D01*
Y15998D01*
X29694Y16078D01*
X30011D01*
X30091Y15998D01*
X29615Y16236D02*
X30091D01*
Y16474D01*
X30011Y16553D01*
X29853D01*
X29774Y16474D01*
Y16236D01*
Y16395D02*
X29615Y16553D01*
X30091Y17029D02*
Y16712D01*
X29615D01*
Y17029D01*
X29853Y16712D02*
Y16871D01*
X30091Y17505D02*
Y17188D01*
X29853D01*
Y17346D01*
Y17188D01*
X29615D01*
X18041Y30724D02*
Y31041D01*
Y30882D01*
X17565D01*
X18041Y31200D02*
X17565Y31517D01*
X18041D02*
X17565Y31200D01*
X16565Y30714D02*
X17041D01*
Y30952D01*
X16961Y31031D01*
X16803D01*
X16724Y30952D01*
Y30714D01*
Y30872D02*
X16565Y31031D01*
X17041Y31190D02*
X16565Y31507D01*
X17041D02*
X16565Y31190D01*
X34679Y31900D02*
X34758Y31820D01*
Y31662D01*
X34679Y31582D01*
X34600D01*
X34520Y31662D01*
Y31820D01*
X34441Y31900D01*
X34362D01*
X34282Y31820D01*
Y31662D01*
X34362Y31582D01*
X34679Y32375D02*
X34758Y32296D01*
Y32137D01*
X34679Y32058D01*
X34362D01*
X34282Y32137D01*
Y32296D01*
X34362Y32375D01*
X34758Y32534D02*
X34282D01*
Y32851D01*
X33683Y31894D02*
X33763Y31815D01*
Y31656D01*
X33683Y31577D01*
X33604D01*
X33525Y31656D01*
Y31815D01*
X33445Y31894D01*
X33366D01*
X33287Y31815D01*
Y31656D01*
X33366Y31577D01*
X33763Y32053D02*
X33287D01*
Y32291D01*
X33366Y32370D01*
X33683D01*
X33763Y32291D01*
Y32053D01*
X33287Y32529D02*
X33604D01*
X33763Y32687D01*
X33604Y32846D01*
X33287D01*
X33525D01*
Y32529D01*
D63*
X17745Y25404D02*
X17603D01*
X17674D01*
Y25829D01*
X17745Y25758D01*
D64*
X25640Y30564D02*
X25765D01*
Y30938D01*
X25640D01*
X25391Y30564D02*
Y30938D01*
X25266D02*
Y30564D01*
X25453Y30813D02*
X25266D01*
X25204D01*
X25453Y30688D02*
X25204D01*
X25080D02*
X24830D01*
X25080Y30813D02*
X24830D01*
X24706Y30564D02*
Y30938D01*
X24519D01*
X24456Y30875D01*
Y30751D01*
X24519Y30688D01*
X24706D01*
X24332Y30938D02*
Y30564D01*
X24207Y30688D01*
X24083Y30564D01*
Y30938D01*
X23958Y30564D02*
Y30938D01*
X23833Y30813D01*
X23709Y30938D01*
Y30564D01*
X23584D02*
X23459D01*
Y30938D01*
X23584D01*
X28219Y31802D02*
X28593D01*
Y31927D02*
X28219D01*
X28469Y31740D02*
Y31927D01*
Y31989D01*
X28344Y31740D02*
Y31989D01*
X27235Y31802D02*
X27609D01*
Y31927D02*
X27235D01*
X27484Y31740D02*
Y31927D01*
Y31989D01*
X27360Y31740D02*
Y31989D01*
X21684Y32235D02*
X22058D01*
Y32360D02*
X21684D01*
X21933Y32173D02*
Y32360D01*
Y32422D01*
X21808Y32173D02*
Y32422D01*
X19676Y32235D02*
X20050D01*
Y32360D02*
X19676D01*
X19925Y32173D02*
Y32360D01*
Y32422D01*
X19801Y32173D02*
Y32422D01*
X22629Y32235D02*
X23003D01*
Y32360D02*
X22629D01*
X22878Y32173D02*
Y32360D01*
Y32422D01*
X22753Y32173D02*
Y32422D01*
X26251Y32196D02*
X26625D01*
Y32320D02*
X26251D01*
X26500Y32133D02*
Y32320D01*
Y32383D01*
X26375Y32133D02*
Y32383D01*
M02*
