G04*
G04 #@! TF.GenerationSoftware,Altium Limited,Altium Designer,22.10.1 (41)*
G04*
G04 Layer_Physical_Order=2*
G04 Layer_Color=16711680*
%FSLAX24Y24*%
%MOIN*%
G70*
G04*
G04 #@! TF.SameCoordinates,5266F301-D4F6-43A7-B3E8-B4584DB96D65*
G04*
G04*
G04 #@! TF.FilePolarity,Positive*
G04*
G01*
G75*
%ADD36C,0.0276*%
%ADD37C,0.0787*%
%ADD39C,0.1969*%
%ADD40C,0.0197*%
%ADD41R,0.0906X0.0906*%
%ADD42C,0.1260*%
%ADD43O,0.0700X0.0750*%
%ADD44R,0.0700X0.0700*%
%ADD45R,0.0945X0.0945*%
%ADD46R,0.0787X0.0787*%
%ADD47C,0.0787*%
%ADD48R,0.1000X0.1600*%
%ADD49R,0.1600X0.1000*%
%ADD50C,0.0591*%
%ADD51R,0.0591X0.0591*%
%ADD52R,0.0630X0.0630*%
%ADD53C,0.0630*%
%ADD54C,0.0650*%
%ADD55R,0.0650X0.0650*%
%ADD56P,0.0852X8X22.5*%
%ADD57C,0.0500*%
G36*
X51349Y12671D02*
X12621D01*
Y43525D01*
X18990D01*
X19011Y43483D01*
X19011Y43475D01*
Y42339D01*
X20156D01*
Y43475D01*
X20156Y43483D01*
X20177Y43525D01*
X34738D01*
X34759Y43483D01*
X34759Y43475D01*
Y42339D01*
X35904D01*
Y43475D01*
X35904Y43483D01*
X35925Y43525D01*
X51349D01*
Y12671D01*
D02*
G37*
%LPC*%
G36*
X30811Y42517D02*
X30706D01*
Y42124D01*
X31099D01*
Y42229D01*
X30811Y42517D01*
D02*
G37*
G36*
X30509D02*
X30403D01*
X30115Y42229D01*
Y42124D01*
X30509D01*
Y42517D01*
D02*
G37*
G36*
X23724D02*
X23619D01*
Y42124D01*
X24013D01*
Y42229D01*
X23724Y42517D01*
D02*
G37*
G36*
X23422D02*
X23317D01*
X23028Y42229D01*
Y42124D01*
X23422D01*
Y42517D01*
D02*
G37*
G36*
X31099Y41927D02*
X30115D01*
Y41821D01*
X30368Y41568D01*
X30403Y41533D01*
X30368Y41498D01*
X30115Y41245D01*
Y41139D01*
X31099D01*
Y41245D01*
X30846Y41498D01*
X30811Y41533D01*
X30846Y41568D01*
X31099Y41821D01*
Y41927D01*
D02*
G37*
G36*
X24013D02*
X23028D01*
Y41821D01*
X23281Y41568D01*
X23317Y41533D01*
X23281Y41498D01*
X23028Y41245D01*
Y41139D01*
X24013D01*
Y41245D01*
X23760Y41498D01*
X23724Y41533D01*
X23760Y41568D01*
X24013Y41821D01*
Y41927D01*
D02*
G37*
G36*
X16294Y41890D02*
X15696D01*
Y40992D01*
X16294D01*
Y41890D01*
D02*
G37*
G36*
X15499D02*
X14900D01*
Y40992D01*
X15499D01*
Y41890D01*
D02*
G37*
G36*
X31099Y40943D02*
X30706D01*
Y40549D01*
X30811D01*
X31099Y40837D01*
Y40943D01*
D02*
G37*
G36*
X30509D02*
X30115D01*
Y40837D01*
X30403Y40549D01*
X30509D01*
Y40943D01*
D02*
G37*
G36*
X24013D02*
X23619D01*
Y40549D01*
X23724D01*
X24013Y40837D01*
Y40943D01*
D02*
G37*
G36*
X23422D02*
X23028D01*
Y40837D01*
X23317Y40549D01*
X23422D01*
Y40943D01*
D02*
G37*
G36*
X50292Y40584D02*
X49972Y40451D01*
X49863Y40188D01*
X49813D01*
X49735Y40377D01*
X49391Y40520D01*
X49046Y40377D01*
X48903Y40032D01*
Y39982D01*
X49046Y39638D01*
X49391Y39495D01*
X49735Y39638D01*
X49813Y39827D01*
X49863D01*
X49972Y39564D01*
X50292Y39431D01*
Y40007D01*
Y40584D01*
D02*
G37*
G36*
X40105Y40428D02*
X39959D01*
X39643Y40112D01*
X39424Y40331D01*
X39015D01*
X38727Y40044D01*
X38440Y40331D01*
X38031D01*
X37791Y40091D01*
X37744Y40110D01*
Y40331D01*
X36757D01*
Y39344D01*
X37744D01*
Y39564D01*
X37791Y39584D01*
X38031Y39344D01*
X38440D01*
X38727Y39631D01*
X39015Y39344D01*
X39424D01*
X39643Y39563D01*
X39959Y39247D01*
X40105D01*
Y39837D01*
Y40428D01*
D02*
G37*
G36*
X50489Y40584D02*
Y40106D01*
X50952D01*
X50809Y40451D01*
X50489Y40584D01*
D02*
G37*
G36*
X46101Y40331D02*
X45692D01*
X45404Y40044D01*
X45116Y40331D01*
X44707D01*
X44420Y40044D01*
X44132Y40331D01*
X43723D01*
X43483Y40091D01*
X43437Y40110D01*
Y40331D01*
X42450D01*
Y39344D01*
X43437D01*
Y39564D01*
X43483Y39584D01*
X43723Y39344D01*
X44132D01*
X44420Y39631D01*
X44707Y39344D01*
X45116D01*
X45404Y39631D01*
X45692Y39344D01*
X46101D01*
X46390Y39633D01*
Y40042D01*
X46101Y40331D01*
D02*
G37*
G36*
X18697Y41793D02*
X17497D01*
Y39993D01*
X18697D01*
Y41793D01*
D02*
G37*
G36*
X40448Y40428D02*
X40302D01*
Y39936D01*
X40794D01*
Y40082D01*
X40448Y40428D01*
D02*
G37*
G36*
X16294Y40795D02*
X15696D01*
Y39896D01*
X16294D01*
Y40795D01*
D02*
G37*
G36*
X15499D02*
X14900D01*
Y39896D01*
X15499D01*
Y40795D01*
D02*
G37*
G36*
X48841Y40457D02*
X47941D01*
Y39557D01*
X48841D01*
Y40457D01*
D02*
G37*
G36*
X50952Y39909D02*
X50489D01*
Y39431D01*
X50809Y39564D01*
X50952Y39909D01*
D02*
G37*
G36*
X40794Y39739D02*
X40302D01*
Y39247D01*
X40448D01*
X40794Y39593D01*
Y39739D01*
D02*
G37*
G36*
X18094Y39590D02*
X17196D01*
Y38992D01*
X18094D01*
Y39590D01*
D02*
G37*
G36*
X16999D02*
X16100D01*
Y38992D01*
X16999D01*
Y39590D01*
D02*
G37*
G36*
X18094Y38795D02*
X17196D01*
Y38196D01*
X18094D01*
Y38795D01*
D02*
G37*
G36*
X16999D02*
X16100D01*
Y38196D01*
X16999D01*
Y38795D01*
D02*
G37*
G36*
X50585Y38334D02*
X50194D01*
Y37252D01*
X51276D01*
Y37642D01*
X50585Y38334D01*
D02*
G37*
G36*
X49997D02*
X49606D01*
X48914Y37642D01*
Y37252D01*
X49997D01*
Y38334D01*
D02*
G37*
G36*
X14364D02*
X13973D01*
Y37252D01*
X15056D01*
Y37642D01*
X14364Y38334D01*
D02*
G37*
G36*
X13776D02*
X13386D01*
X12694Y37642D01*
Y37252D01*
X13776D01*
Y38334D01*
D02*
G37*
G36*
X31002Y37893D02*
X30212D01*
Y37102D01*
X31002D01*
Y37893D01*
D02*
G37*
G36*
Y36909D02*
X30212D01*
Y36118D01*
X31002D01*
Y36909D01*
D02*
G37*
G36*
X23916D02*
X23125D01*
Y36118D01*
X23916D01*
Y36909D01*
D02*
G37*
G36*
X51276Y37055D02*
X50194D01*
Y35972D01*
X50585D01*
X51276Y36664D01*
Y37055D01*
D02*
G37*
G36*
X49997D02*
X48914D01*
Y36664D01*
X49606Y35972D01*
X49997D01*
Y37055D01*
D02*
G37*
G36*
X15056D02*
X13973D01*
Y35972D01*
X14364D01*
X15056Y36664D01*
Y37055D01*
D02*
G37*
G36*
X13776D02*
X12694D01*
Y36664D01*
X13386Y35972D01*
X13776D01*
Y37055D01*
D02*
G37*
G36*
X35233Y36494D02*
X34662D01*
Y35923D01*
X35233D01*
Y36494D01*
D02*
G37*
G36*
X20253D02*
X19682D01*
Y35923D01*
X20253D01*
Y36494D01*
D02*
G37*
G36*
X19485D02*
X18914D01*
Y35923D01*
X19485D01*
Y36494D01*
D02*
G37*
G36*
X45302Y35761D02*
X45184D01*
Y35338D01*
X45607D01*
Y35456D01*
X45302Y35761D01*
D02*
G37*
G36*
X44987D02*
X44869D01*
X44564Y35456D01*
Y35338D01*
X44987D01*
Y35761D01*
D02*
G37*
G36*
X36001Y35726D02*
X35430D01*
Y35155D01*
X36001D01*
Y35726D01*
D02*
G37*
G36*
X35233D02*
X34662D01*
Y35155D01*
X35233D01*
Y35726D01*
D02*
G37*
G36*
X20253D02*
X19682D01*
Y35155D01*
X20253D01*
Y35726D01*
D02*
G37*
G36*
X19485D02*
X18914D01*
Y35155D01*
X19485D01*
Y35726D01*
D02*
G37*
G36*
X34003Y39410D02*
X24898D01*
X24521Y39253D01*
X23160Y37893D01*
X23125D01*
Y37833D01*
X22986Y37498D01*
X23125Y37162D01*
Y37102D01*
X23185D01*
X23520Y36963D01*
X23856Y37102D01*
X23916D01*
Y37137D01*
X25120Y38341D01*
X33781D01*
X35583Y36540D01*
X35564Y36494D01*
X35430D01*
Y35923D01*
X36001D01*
Y36057D01*
X36047Y36076D01*
X44261Y27862D01*
X44377Y27814D01*
X44367Y27765D01*
X31009D01*
X27764Y31010D01*
Y33061D01*
X30815D01*
Y32964D01*
X31367D01*
Y33614D01*
Y34263D01*
X30815D01*
Y34167D01*
X24912D01*
Y33061D01*
X26237D01*
X26265Y33019D01*
X26265Y33019D01*
Y31051D01*
X26340Y30869D01*
X30474Y26735D01*
X30656Y26660D01*
X45412D01*
X45431Y26610D01*
X45202Y26380D01*
Y26036D01*
X45445Y25793D01*
X45789D01*
X46032Y26036D01*
Y26380D01*
X45789Y26623D01*
X45709D01*
X45699Y26673D01*
X45848Y26735D01*
X46791Y27678D01*
X46867Y27860D01*
Y33019D01*
X47830Y33982D01*
X49742D01*
X49909Y33815D01*
X50261D01*
X50510Y34064D01*
Y34416D01*
X50261Y34665D01*
X49909D01*
X49742Y34497D01*
X47723D01*
X47541Y34422D01*
X46537Y33418D01*
X46491Y33437D01*
Y33677D01*
X47796Y34982D01*
X49742D01*
X49909Y34815D01*
X50261D01*
X50510Y35064D01*
Y35416D01*
X50261Y35665D01*
X49909D01*
X49742Y35497D01*
X47690D01*
X47508Y35422D01*
X46052Y33966D01*
X45976Y33784D01*
Y28329D01*
X45523Y27876D01*
X45481Y27905D01*
X45620Y28240D01*
X45463Y28618D01*
X45321Y28676D01*
X45316Y28733D01*
X45607Y29024D01*
Y29141D01*
X45085D01*
X44564D01*
Y29136D01*
X44518Y29116D01*
X34381Y39253D01*
X34003Y39410D01*
D02*
G37*
G36*
X45607Y35141D02*
X45184D01*
Y34718D01*
X45302D01*
X45607Y35024D01*
Y35141D01*
D02*
G37*
G36*
X44987D02*
X44564D01*
Y35024D01*
X44869Y34718D01*
X44987D01*
Y35141D01*
D02*
G37*
G36*
X45261Y34665D02*
X44909D01*
X44661Y34416D01*
Y34064D01*
X44909Y33815D01*
X45261D01*
X45510Y34064D01*
Y34416D01*
X45261Y34665D01*
D02*
G37*
G36*
X24418Y34167D02*
X16312D01*
Y33061D01*
X24418D01*
Y34167D01*
D02*
G37*
G36*
X32115Y34263D02*
X31563D01*
Y33614D01*
Y32964D01*
X32115D01*
Y33061D01*
X35018D01*
Y34167D01*
X32115D01*
Y34263D01*
D02*
G37*
G36*
X36167Y34344D02*
X35563D01*
X35135Y33916D01*
Y33311D01*
X35563Y32884D01*
X36167D01*
X36595Y33311D01*
Y33916D01*
X36167Y34344D01*
D02*
G37*
G36*
X45261Y33665D02*
X44909D01*
X44661Y33416D01*
Y33064D01*
X44909Y32815D01*
X45261D01*
X45510Y33064D01*
Y33416D01*
X45261Y33665D01*
D02*
G37*
G36*
Y32665D02*
X44909D01*
X44661Y32416D01*
Y32064D01*
X44909Y31815D01*
X45261D01*
X45510Y32064D01*
Y32416D01*
X45261Y32665D01*
D02*
G37*
G36*
X33416Y31211D02*
X33126D01*
X33039Y31124D01*
X33035Y31122D01*
X33028Y31121D01*
X33024Y31119D01*
X33023Y31118D01*
X33022Y31118D01*
X29520D01*
X29520Y31118D01*
X29518Y31119D01*
X29514Y31121D01*
X29507Y31122D01*
X29505Y31123D01*
X29423Y31204D01*
X29133D01*
X28928Y30999D01*
Y30709D01*
X29133Y30504D01*
X29423D01*
X29516Y30597D01*
X29521Y30599D01*
X29528Y30600D01*
X29532Y30602D01*
X29534Y30603D01*
X29534Y30603D01*
X33022D01*
X33023Y30603D01*
X33024Y30603D01*
X33028Y30600D01*
X33035Y30599D01*
X33039Y30598D01*
X33126Y30511D01*
X33416D01*
X33621Y30716D01*
Y31006D01*
X33416Y31211D01*
D02*
G37*
G36*
X50261Y33665D02*
X49909D01*
X49661Y33416D01*
Y33064D01*
X49909Y32815D01*
X50024D01*
X50060Y32782D01*
Y32782D01*
X50060D01*
X50063Y32765D01*
X50061Y32764D01*
X49708Y32618D01*
X49637Y32548D01*
X49369Y32436D01*
X47208Y30275D01*
X47051Y29897D01*
Y20070D01*
X46078Y19097D01*
X46032Y19116D01*
Y19623D01*
X45202D01*
Y18793D01*
X45709D01*
X45728Y18747D01*
X44495Y17514D01*
X28627D01*
X28250Y17358D01*
X26541Y15649D01*
X26384Y15271D01*
Y15263D01*
X25963D01*
Y14614D01*
Y13964D01*
X26515D01*
Y14061D01*
X31418D01*
Y15167D01*
X27635D01*
X27616Y15213D01*
X28849Y16446D01*
X44717D01*
X45095Y16602D01*
X47963Y19471D01*
X48120Y19849D01*
Y29676D01*
X49614Y31171D01*
X49661Y31151D01*
Y31064D01*
X49909Y30815D01*
X50261D01*
X50510Y31064D01*
Y31416D01*
X50294Y31632D01*
X50282Y31680D01*
X50463Y31862D01*
X50620Y32240D01*
X50463Y32618D01*
X50110Y32764D01*
X50108Y32765D01*
X50111Y32782D01*
X50111D01*
Y32782D01*
X50147Y32815D01*
X50261D01*
X50510Y33064D01*
Y33416D01*
X50261Y33665D01*
D02*
G37*
G36*
X45261Y31665D02*
X44909D01*
X44661Y31416D01*
Y31064D01*
X44909Y30815D01*
X45261D01*
X45510Y31064D01*
Y31416D01*
X45261Y31665D01*
D02*
G37*
G36*
X50261Y30665D02*
X49909D01*
X49661Y30416D01*
Y30064D01*
X49909Y29815D01*
X50261D01*
X50510Y30064D01*
Y30416D01*
X50261Y30665D01*
D02*
G37*
G36*
X45261D02*
X44909D01*
X44661Y30416D01*
Y30064D01*
X44909Y29815D01*
X45261D01*
X45510Y30064D01*
Y30416D01*
X45261Y30665D01*
D02*
G37*
G36*
X45302Y29761D02*
X45184D01*
Y29338D01*
X45607D01*
Y29456D01*
X45302Y29761D01*
D02*
G37*
G36*
X44987D02*
X44869D01*
X44564Y29456D01*
Y29338D01*
X44987D01*
Y29761D01*
D02*
G37*
G36*
X50261Y29665D02*
X49909D01*
X49661Y29416D01*
Y29064D01*
X49909Y28815D01*
X50261D01*
X50510Y29064D01*
Y29416D01*
X50261Y29665D01*
D02*
G37*
G36*
X50510Y28665D02*
X49661D01*
Y27815D01*
X50510D01*
Y28665D01*
D02*
G37*
G36*
X16167Y28344D02*
X15563D01*
X15135Y27916D01*
Y27311D01*
X15563Y26884D01*
X16167D01*
X16595Y27311D01*
Y27916D01*
X16167Y28344D01*
D02*
G37*
G36*
X45789Y25623D02*
X45445D01*
X45202Y25380D01*
Y25036D01*
X45445Y24793D01*
X45789D01*
X46032Y25036D01*
Y25380D01*
X45789Y25623D01*
D02*
G37*
G36*
Y24623D02*
X45445D01*
X45202Y24380D01*
Y24036D01*
X45445Y23793D01*
X45789D01*
X46032Y24036D01*
Y24380D01*
X45789Y24623D01*
D02*
G37*
G36*
X49554Y23817D02*
X49357D01*
Y23324D01*
X49849D01*
Y23521D01*
X49554Y23817D01*
D02*
G37*
G36*
X49160D02*
X48963D01*
X48668Y23521D01*
Y23324D01*
X49160D01*
Y23817D01*
D02*
G37*
G36*
X17368Y26167D02*
X15262D01*
Y25061D01*
Y24061D01*
Y23061D01*
X17368D01*
Y24061D01*
Y25061D01*
Y26167D01*
D02*
G37*
G36*
X45789Y23623D02*
X45445D01*
X45202Y23380D01*
Y23036D01*
X45445Y22793D01*
X45789D01*
X46032Y23036D01*
Y23380D01*
X45789Y23623D01*
D02*
G37*
G36*
Y22623D02*
X45445D01*
X45202Y22380D01*
Y22036D01*
X45445Y21793D01*
X45789D01*
X46032Y22036D01*
Y22380D01*
X45789Y22623D01*
D02*
G37*
G36*
X49849Y23128D02*
X48668D01*
Y22931D01*
X48959Y22640D01*
X48765Y22446D01*
Y22037D01*
X49054Y21748D01*
X49463D01*
X49752Y22037D01*
Y22446D01*
X49559Y22640D01*
X49849Y22931D01*
Y23128D01*
D02*
G37*
G36*
X45789Y21623D02*
X45445D01*
X45202Y21380D01*
Y21036D01*
X45445Y20793D01*
X45789D01*
X46032Y21036D01*
Y21380D01*
X45789Y21623D01*
D02*
G37*
G36*
Y20623D02*
X45445D01*
X45202Y20380D01*
Y20036D01*
X45445Y19793D01*
X45789D01*
X46032Y20036D01*
Y20380D01*
X45789Y20623D01*
D02*
G37*
G36*
X49603Y19978D02*
X49406D01*
Y19486D01*
X49898D01*
Y19683D01*
X49603Y19978D01*
D02*
G37*
G36*
X49209D02*
X49013D01*
X48717Y19683D01*
Y19486D01*
X49209D01*
Y19978D01*
D02*
G37*
G36*
X49898Y19289D02*
X48717D01*
Y19092D01*
X49008Y18801D01*
X48814Y18608D01*
Y18199D01*
X49103Y17909D01*
X49512D01*
X49802Y18199D01*
Y18608D01*
X49608Y18801D01*
X49898Y19092D01*
Y19289D01*
D02*
G37*
G36*
X16167Y17344D02*
X15563D01*
X15135Y16916D01*
Y16311D01*
X15563Y15884D01*
X16167D01*
X16595Y16311D01*
Y16916D01*
X16167Y17344D01*
D02*
G37*
G36*
X22418Y15167D02*
X16312D01*
Y14061D01*
X22418D01*
Y15167D01*
D02*
G37*
G36*
X50585Y15106D02*
X50194D01*
Y14023D01*
X51276D01*
Y14414D01*
X50585Y15106D01*
D02*
G37*
G36*
X49997D02*
X49606D01*
X48914Y14414D01*
Y14023D01*
X49997D01*
Y15106D01*
D02*
G37*
G36*
X14364D02*
X13973D01*
Y14023D01*
X15056D01*
Y14414D01*
X14364Y15106D01*
D02*
G37*
G36*
X13776D02*
X13386D01*
X12694Y14414D01*
Y14023D01*
X13776D01*
Y15106D01*
D02*
G37*
G36*
X25767Y15263D02*
X24963D01*
Y14614D01*
Y13964D01*
X25767D01*
Y14614D01*
Y15263D01*
D02*
G37*
G36*
X24767D02*
X24215D01*
Y15167D01*
X23312D01*
Y14061D01*
X24215D01*
Y13964D01*
X24767D01*
Y14614D01*
Y15263D01*
D02*
G37*
G36*
X36667Y15344D02*
X36063D01*
X35635Y14916D01*
Y14311D01*
X36063Y13884D01*
X36667D01*
X37095Y14311D01*
Y14916D01*
X36667Y15344D01*
D02*
G37*
G36*
X51276Y13826D02*
X50194D01*
Y12744D01*
X50585D01*
X51276Y13436D01*
Y13826D01*
D02*
G37*
G36*
X49997D02*
X48914D01*
Y13436D01*
X49606Y12744D01*
X49997D01*
Y13826D01*
D02*
G37*
G36*
X15056D02*
X13973D01*
Y12744D01*
X14364D01*
X15056Y13436D01*
Y13826D01*
D02*
G37*
G36*
X13776D02*
X12694D01*
Y13436D01*
X13386Y12744D01*
X13776D01*
Y13826D01*
D02*
G37*
%LPD*%
G36*
X24371Y37792D02*
X23815Y37204D01*
X23226Y37792D01*
X23238Y37797D01*
X23260Y37814D01*
X23293Y37842D01*
X23613Y38148D01*
X23815Y38348D01*
X24371Y37792D01*
D02*
G37*
G36*
X33092Y30686D02*
X33084Y30693D01*
X33074Y30699D01*
X33061Y30705D01*
X33046Y30709D01*
X33029Y30714D01*
X33010Y30717D01*
X32966Y30721D01*
X32940Y30722D01*
X32912Y30723D01*
Y30998D01*
X32940Y30999D01*
X33010Y31004D01*
X33029Y31008D01*
X33046Y31012D01*
X33061Y31017D01*
X33074Y31022D01*
X33084Y31029D01*
X33092Y31036D01*
Y30686D01*
D02*
G37*
G36*
X29460Y31027D02*
X29471Y31021D01*
X29484Y31016D01*
X29498Y31011D01*
X29515Y31007D01*
X29534Y31004D01*
X29579Y31000D01*
X29605Y30999D01*
X29632Y30998D01*
X29641Y30723D01*
X29614Y30722D01*
X29544Y30717D01*
X29525Y30713D01*
X29508Y30709D01*
X29493Y30704D01*
X29480Y30698D01*
X29470Y30691D01*
X29462Y30684D01*
X29452Y31034D01*
X29460Y31027D01*
D02*
G37*
D36*
X46234Y33784D02*
X47690Y35240D01*
X46609Y33126D02*
X47723Y34240D01*
X46609Y27860D02*
Y33126D01*
X46234Y28223D02*
Y33784D01*
X45518Y27507D02*
X46234Y28223D01*
X45666Y26917D02*
X46609Y27860D01*
X30656Y26917D02*
X45666D01*
X27507Y30903D02*
Y33068D01*
X26522Y31051D02*
Y33019D01*
Y31051D02*
X30656Y26917D01*
X30902Y27507D02*
X45518D01*
X27507Y30903D02*
X30902Y27507D01*
X29285Y30861D02*
X33271D01*
X29278Y30854D02*
X29285Y30861D01*
X47723Y34240D02*
X50085D01*
X47690Y35240D02*
X50085D01*
D37*
X47585Y19849D02*
Y29897D01*
X49746Y32058D01*
X44717Y16980D02*
X47585Y19849D01*
X49746Y32058D02*
X49904D01*
X50085Y32240D01*
X28627Y16980D02*
X44717D01*
X26918Y15271D02*
X28627Y16980D01*
X26918Y14667D02*
Y15271D01*
X26865Y14614D02*
X26918Y14667D01*
X44639Y28240D02*
X45085D01*
X34003Y38876D02*
X44639Y28240D01*
X24898Y38876D02*
X34003D01*
X23520Y37498D02*
X24898Y38876D01*
D39*
X13875Y37153D02*
D03*
Y13925D02*
D03*
X50095D02*
D03*
Y37153D02*
D03*
D40*
X13146Y13689D02*
D03*
X13527Y13243D02*
D03*
X14111Y13196D02*
D03*
X14557Y13577D02*
D03*
X14603Y14161D02*
D03*
X14223Y14607D02*
D03*
X13639Y14653D02*
D03*
X13193Y14273D02*
D03*
X49413D02*
D03*
X49859Y14653D02*
D03*
X50443Y14607D02*
D03*
X50824Y14161D02*
D03*
X50777Y13577D02*
D03*
X50332Y13196D02*
D03*
X49747Y13243D02*
D03*
X49367Y13689D02*
D03*
X49413Y37550D02*
D03*
X49859Y37931D02*
D03*
X50443Y37884D02*
D03*
X50824Y37439D02*
D03*
X50777Y36854D02*
D03*
X50332Y36474D02*
D03*
X49747Y36520D02*
D03*
X49367Y36966D02*
D03*
X13193Y37501D02*
D03*
X13639Y37882D02*
D03*
X14223Y37835D02*
D03*
X14603Y37389D02*
D03*
X14557Y36805D02*
D03*
X14111Y36425D02*
D03*
X13527Y36471D02*
D03*
X13146Y36917D02*
D03*
D41*
X15815Y23614D02*
D03*
X16815D02*
D03*
X15815Y24614D02*
D03*
X16815D02*
D03*
X15815Y25614D02*
D03*
X16815D02*
D03*
X23865Y33614D02*
D03*
X22865D02*
D03*
X21865D02*
D03*
X20865D02*
D03*
X19865D02*
D03*
X18865D02*
D03*
X17865D02*
D03*
X16865D02*
D03*
X34465D02*
D03*
X33465D02*
D03*
X32465D02*
D03*
X31465D02*
D03*
X30465D02*
D03*
X29465D02*
D03*
X28465D02*
D03*
X27465D02*
D03*
X26465D02*
D03*
X25465D02*
D03*
X16865Y14614D02*
D03*
X17865D02*
D03*
X18865D02*
D03*
X19865D02*
D03*
X20865D02*
D03*
X21865D02*
D03*
X23865D02*
D03*
X24865D02*
D03*
X25865D02*
D03*
X26865D02*
D03*
X27865D02*
D03*
X28865D02*
D03*
X29865D02*
D03*
X30865D02*
D03*
D42*
X15865Y27614D02*
D03*
Y16614D02*
D03*
X35865Y33614D02*
D03*
X36365Y14614D02*
D03*
D43*
X49391Y40007D02*
D03*
X50391D02*
D03*
D44*
X48391D02*
D03*
D45*
X19583Y35824D02*
D03*
X35331D02*
D03*
X19583Y42911D02*
D03*
X35331D02*
D03*
D46*
X42943Y39837D02*
D03*
X37251D02*
D03*
D47*
X43928D02*
D03*
X44912D02*
D03*
X45896D02*
D03*
X40204D02*
D03*
X39219D02*
D03*
X38235D02*
D03*
X49259Y22242D02*
D03*
X49308Y18403D02*
D03*
D48*
X18097Y40893D02*
D03*
X15597D02*
D03*
D49*
X17097Y38893D02*
D03*
D50*
X30607Y42025D02*
D03*
Y41041D02*
D03*
X23520Y42025D02*
D03*
Y41041D02*
D03*
D51*
X30607Y37498D02*
D03*
Y36513D02*
D03*
X23520Y37498D02*
D03*
Y36513D02*
D03*
D52*
X45617Y19208D02*
D03*
D53*
Y20208D02*
D03*
Y21208D02*
D03*
Y22208D02*
D03*
Y23208D02*
D03*
Y24208D02*
D03*
Y25208D02*
D03*
Y26208D02*
D03*
D54*
X50085Y31240D02*
D03*
X45085D02*
D03*
X50085Y32240D02*
D03*
Y33240D02*
D03*
Y34240D02*
D03*
Y35240D02*
D03*
Y30240D02*
D03*
Y29240D02*
D03*
X45085Y30240D02*
D03*
Y29240D02*
D03*
Y28240D02*
D03*
Y32240D02*
D03*
Y33240D02*
D03*
Y34240D02*
D03*
Y35240D02*
D03*
D55*
X50085Y28240D02*
D03*
D56*
X49259Y23226D02*
D03*
X49308Y19387D02*
D03*
D57*
X33271Y30861D02*
D03*
X29278Y30854D02*
D03*
M02*
