G04*
G04 #@! TF.GenerationSoftware,Altium Limited,Altium Designer,22.10.1 (41)*
G04*
G04 Layer_Color=65535*
%FSLAX24Y24*%
%MOIN*%
G70*
G04*
G04 #@! TF.SameCoordinates,5266F301-D4F6-43A7-B3E8-B4584DB96D65*
G04*
G04*
G04 #@! TF.FilePolarity,Positive*
G04*
G01*
G75*
%ADD10C,0.0079*%
%ADD11C,0.0100*%
%ADD12C,0.0197*%
%ADD13C,0.0070*%
%ADD14C,0.0050*%
%ADD15R,0.0276X0.0748*%
%ADD16R,0.1614X0.0276*%
%ADD17R,0.0276X0.3071*%
G36*
X36906Y38752D02*
X37616D01*
X37266Y39102D01*
Y39112D01*
X36906Y38752D01*
D02*
G37*
G36*
X42598D02*
X43308D01*
X42958Y39102D01*
Y39112D01*
X42598Y38752D01*
D02*
G37*
G36*
X48036Y38912D02*
X48746D01*
X48396Y39262D01*
Y39272D01*
X48036Y38912D01*
D02*
G37*
D10*
X14426Y14958D02*
G03*
X13875Y15106I-551J-955D01*
G01*
X13534Y15045D02*
G03*
X13040Y14760I285J-1065D01*
G01*
X12841Y14476D02*
G03*
X12694Y13925I955J-551D01*
G01*
X12754Y13584D02*
G03*
X13040Y13090I1065J285D01*
G01*
X13324Y12891D02*
G03*
X13875Y12744I551J955D01*
G01*
X14216Y12804D02*
G03*
X14710Y13090I-285J1065D01*
G01*
X14908Y13374D02*
G03*
X15056Y13925I-955J551D01*
G01*
X14995Y14266D02*
G03*
X14710Y14760I-1065J-285D01*
G01*
X51216Y14266D02*
G03*
X50930Y14760I-1065J-285D01*
G01*
X51129Y13374D02*
G03*
X51276Y13925I-955J551D01*
G01*
X50436Y12804D02*
G03*
X50930Y13090I-285J1065D01*
G01*
X49544Y12891D02*
G03*
X50095Y12744I551J955D01*
G01*
X48975Y13584D02*
G03*
X49260Y13090I1065J285D01*
G01*
X49062Y14476D02*
G03*
X48914Y13925I955J-551D01*
G01*
X49754Y15045D02*
G03*
X49260Y14760I285J-1065D01*
G01*
X50646Y14958D02*
G03*
X50095Y15106I-551J-955D01*
G01*
X51216Y37543D02*
G03*
X50930Y38038I-1065J-285D01*
G01*
X51129Y36651D02*
G03*
X51276Y37202I-955J551D01*
G01*
X50436Y36082D02*
G03*
X50930Y36367I-285J1065D01*
G01*
X49544Y36169D02*
G03*
X50095Y36021I551J955D01*
G01*
X48975Y36861D02*
G03*
X49260Y36367I1065J285D01*
G01*
X49062Y37754D02*
G03*
X48914Y37202I955J-551D01*
G01*
X49754Y38323D02*
G03*
X49260Y38038I285J-1065D01*
G01*
X50646Y38236D02*
G03*
X50095Y38383I-551J-955D01*
G01*
X14995Y37494D02*
G03*
X14710Y37988I-1065J-285D01*
G01*
X14908Y36602D02*
G03*
X15056Y37153I-955J551D01*
G01*
X14216Y36033D02*
G03*
X14710Y36318I-285J1065D01*
G01*
X13324Y36120D02*
G03*
X13875Y35972I551J955D01*
G01*
X12754Y36812D02*
G03*
X13040Y36318I1065J285D01*
G01*
X12841Y37704D02*
G03*
X12694Y37153I955J-551D01*
G01*
X13534Y38274D02*
G03*
X13040Y37988I285J-1065D01*
G01*
X14426Y38187D02*
G03*
X13875Y38334I-551J-955D01*
G01*
X51011Y28196D02*
G03*
X51011Y28196I-39J0D01*
G01*
X47461Y39507D02*
Y42657D01*
X51291D01*
Y39507D02*
Y42657D01*
X47461Y39507D02*
X51291D01*
X45117Y19708D02*
X46117D01*
X45117Y26708D02*
X46117D01*
Y18708D02*
Y26708D01*
X45117Y18708D02*
X46117D01*
X45117D02*
Y26708D01*
X48314Y21198D02*
X50637Y21198D01*
X48314Y24269D02*
X50637Y24269D01*
X48314Y21198D02*
Y24269D01*
X50637Y21198D02*
Y24269D01*
X48363Y17360D02*
X50686Y17360D01*
X48363Y20431D02*
X50686Y20431D01*
X48363Y17360D02*
Y20431D01*
X50686Y17360D02*
Y20431D01*
D11*
X48031Y41627D02*
G03*
X48041Y41617I10J0D01*
G01*
X50581Y42627D02*
G03*
X50591Y42637I0J10D01*
G01*
Y42617D02*
G03*
X50581Y42627I-10J0D01*
G01*
X48021Y41617D02*
Y42617D01*
Y41617D02*
X48431D01*
Y42637D01*
X50591Y41627D02*
Y42617D01*
X50181Y41627D02*
X50591D01*
X50181D02*
Y42647D01*
X41803D02*
X47043D01*
X41803Y39847D02*
Y42647D01*
X47043Y39847D02*
Y42647D01*
X42553Y41347D02*
Y42597D01*
Y41347D02*
X43253D01*
Y42647D01*
X45553Y41347D02*
Y42647D01*
Y41347D02*
X46303D01*
Y42647D01*
X46403Y39847D02*
X47043D01*
X41803D02*
X42403D01*
X36111D02*
X36711D01*
X40711D02*
X41351D01*
X40611Y41347D02*
Y42647D01*
X39861Y41347D02*
X40611D01*
X39861D02*
Y42647D01*
X37561Y41347D02*
Y42647D01*
X36861Y41347D02*
X37561D01*
X36861D02*
Y42597D01*
X41351Y39847D02*
Y42647D01*
X36111Y39847D02*
Y42647D01*
X41351D01*
X12750Y16050D02*
X13150D01*
X12950D01*
Y15450D01*
X13350D02*
X13550D01*
X13450D01*
Y16050D01*
X13350Y15950D01*
X48970Y16050D02*
X49370D01*
X49170D01*
Y15450D01*
X49970D02*
X49570D01*
X49970Y15850D01*
Y15950D01*
X49870Y16050D01*
X49670D01*
X49570Y15950D01*
X48970Y39320D02*
X49370D01*
X49170D01*
Y38720D01*
X49570Y39220D02*
X49670Y39320D01*
X49870D01*
X49970Y39220D01*
Y39120D01*
X49870Y39020D01*
X49770D01*
X49870D01*
X49970Y38920D01*
Y38820D01*
X49870Y38720D01*
X49670D01*
X49570Y38820D01*
X12750Y39270D02*
X13150D01*
X12950D01*
Y38670D01*
X13650D02*
Y39270D01*
X13350Y38970D01*
X13750D01*
X24113Y37155D02*
Y36827D01*
X24277Y36663D01*
X24441Y36827D01*
Y37155D01*
X24605D02*
X24769D01*
X24687D01*
Y36663D01*
X24605D01*
X24769D01*
X25015D02*
Y37155D01*
X25343Y36663D01*
Y37155D01*
X25507Y36909D02*
X25834D01*
X25670Y37073D02*
Y36745D01*
X24113Y41879D02*
Y41551D01*
X24277Y41387D01*
X24441Y41551D01*
Y41879D01*
X24605D02*
X24769D01*
X24687D01*
Y41387D01*
X24605D01*
X24769D01*
X25015D02*
Y41879D01*
X25343Y41387D01*
Y41879D01*
X25507Y41633D02*
X25834D01*
X28542Y41879D02*
Y41551D01*
X28706Y41387D01*
X28870Y41551D01*
Y41879D01*
X29280D02*
X29116D01*
X29034Y41797D01*
Y41469D01*
X29116Y41387D01*
X29280D01*
X29362Y41469D01*
Y41797D01*
X29280Y41879D01*
X29526Y41633D02*
X29854D01*
X28493Y37155D02*
Y36827D01*
X28657Y36663D01*
X28821Y36827D01*
Y37155D01*
X29230D02*
X29066D01*
X28984Y37073D01*
Y36745D01*
X29066Y36663D01*
X29230D01*
X29312Y36745D01*
Y37073D01*
X29230Y37155D01*
X29476Y36909D02*
X29804D01*
X29640Y37073D02*
Y36745D01*
X41830Y43600D02*
Y43000D01*
Y43300D01*
X42230D01*
Y43600D01*
Y43000D01*
X42830D02*
X42430D01*
X42830Y43400D01*
Y43500D01*
X42730Y43600D01*
X42530D01*
X42430Y43500D01*
X17310Y36124D02*
X17510D01*
X17410D01*
Y35525D01*
X17310D01*
X17510D01*
X18209Y36024D02*
X18109Y36124D01*
X17909D01*
X17809Y36024D01*
Y35624D01*
X17909Y35525D01*
X18109D01*
X18209Y35624D01*
X18409Y35525D02*
X18609D01*
X18509D01*
Y36124D01*
X18409Y36024D01*
X45580Y27650D02*
X45380D01*
X45480D01*
Y27150D01*
X45380Y27050D01*
X45280D01*
X45180Y27150D01*
X45780Y27050D02*
Y27650D01*
X46080D01*
X46180Y27550D01*
Y27350D01*
X46080Y27250D01*
X45780D01*
X46380Y27050D02*
X46580D01*
X46480D01*
Y27650D01*
X46380Y27550D01*
X48820Y21370D02*
X48620D01*
X48720D01*
Y20870D01*
X48620Y20770D01*
X48520D01*
X48420Y20870D01*
X49420Y20770D02*
X49020D01*
X49420Y21170D01*
Y21270D01*
X49320Y21370D01*
X49120D01*
X49020Y21270D01*
X48770Y25210D02*
X48570D01*
X48670D01*
Y24710D01*
X48570Y24610D01*
X48470D01*
X48370Y24710D01*
X48970Y24610D02*
X49170D01*
X49070D01*
Y25210D01*
X48970Y25110D01*
X44580Y36750D02*
Y36250D01*
X44680Y36150D01*
X44880D01*
X44980Y36250D01*
Y36750D01*
X45180Y36150D02*
X45380D01*
X45280D01*
Y36750D01*
X45180Y36650D01*
X13060Y43480D02*
X12860D01*
X12960D01*
Y42980D01*
X12860Y42880D01*
X12760D01*
X12660Y42980D01*
X13260Y42880D02*
Y43280D01*
X13460Y43480D01*
X13660Y43280D01*
Y42880D01*
Y43180D01*
X13260D01*
X14259Y43380D02*
X14160Y43480D01*
X13960D01*
X13860Y43380D01*
Y42980D01*
X13960Y42880D01*
X14160D01*
X14259Y42980D01*
X14459Y43480D02*
Y42880D01*
Y43080D01*
X14859Y43480D01*
X14559Y43180D01*
X14859Y42880D01*
X15659Y43480D02*
Y42880D01*
X15959D01*
X16059Y42980D01*
Y43380D01*
X15959Y43480D01*
X15659D01*
X16659Y43380D02*
X16559Y43480D01*
X16359D01*
X16259Y43380D01*
Y42980D01*
X16359Y42880D01*
X16559D01*
X16659Y42980D01*
X16859Y42880D02*
X17059D01*
X16959D01*
Y43480D01*
X16859Y43380D01*
X36140Y43600D02*
Y43000D01*
Y43300D01*
X36540D01*
Y43600D01*
Y43000D01*
X36740Y43500D02*
X36840Y43600D01*
X37040D01*
X37140Y43500D01*
Y43400D01*
X37040Y43300D01*
X36940D01*
X37040D01*
X37140Y43200D01*
Y43100D01*
X37040Y43000D01*
X36840D01*
X36740Y43100D01*
X47520Y43600D02*
Y43000D01*
Y43300D01*
X47920D01*
Y43600D01*
Y43000D01*
X48120D02*
X48320D01*
X48220D01*
Y43600D01*
X48120Y43500D01*
X22810Y43140D02*
X23210Y42740D01*
X22810D02*
X23210Y43140D01*
X22810Y42940D02*
X23210D01*
X23010Y42740D02*
Y43140D01*
D12*
X18993Y35431D02*
X18993Y43305D01*
X18993Y35431D02*
X35922D01*
Y43305D01*
X18993Y43305D02*
X35922Y43305D01*
D13*
X12597Y39093D02*
Y42393D01*
X18047Y39093D02*
Y42393D01*
X12597D02*
X18047D01*
X12597Y39093D02*
X18047D01*
X13297D02*
Y42393D01*
D14*
X22733Y36120D02*
Y42419D01*
X31394D01*
Y36120D02*
Y42419D01*
X22733Y36120D02*
X31394D01*
X44585Y27740D02*
X50585D01*
Y35740D01*
X44585Y27740D02*
Y35740D01*
X50585D01*
D15*
X48452Y21572D02*
D03*
Y23895D02*
D03*
X48501Y17734D02*
D03*
Y20057D02*
D03*
D16*
X49830Y21336D02*
D03*
Y24131D02*
D03*
X49879Y17498D02*
D03*
Y20293D02*
D03*
D17*
X50499Y22734D02*
D03*
X50548Y18895D02*
D03*
M02*
