M48
;Layer_Color=9474304
;FILE_FORMAT=2:4
INCH,LZ
;TYPE=PLATED
T1F00S00C0.0197
T2F00S00C0.0315
T3F00S00C0.0350
T4F00S00C0.0394
T5F00S00C0.0433
T7F00S00C0.1220
T8F00S00C0.1260
;TYPE=NON_PLATED
T9F00S00C0.0394
%
T01
X013527Y013243
X014111Y013196
X014557Y013577
X014603Y014161
X014223Y014607
X013639Y014653
X013193Y014273
X013146Y013689
X049367
X049413Y014273
X049859Y014653
X050443Y014607
X050824Y014161
X050777Y013577
X050332Y013196
X049747Y013243
X014557Y036805
X014603Y037389
X014223Y037835
X013639Y037882
X013193Y037501
X013146Y036917
X013527Y036471
X014111Y036425
X049747Y03652
X050332Y036474
X050777Y036854
X050824Y037439
X050443Y037884
X049859Y037931
X049413Y03755
X049367Y036966
T02
X033271Y030861
X029278Y030854
T03
X037251Y039837
X038235
X039219
X040204
X042943
X043928
X044912
X045896
T04
X016865Y014614
X017865
X018865
X019865
X020865
X021865
X023865
X024865
X025865
X026865
X027865
X028865
X029865
X030865
X049308Y018403
Y019387
X049259Y022242
Y023226
X016815Y023614
X015815
Y024614
X016815
Y025614
X015815
X016865Y033614
X017865
X018865
X019865
X020865
X021865
X022865
X023865
X025465
X026465
X027465
X028465
X029465
X030465
X030607Y036513
Y037498
Y041041
Y042025
X02352
Y041041
Y037498
Y036513
X019583Y035824
X019583Y042911
X035331
Y035824
X034465Y033614
X033465
X032465
X031465
T05
X050085Y02824
Y02924
Y03024
Y03124
X045085
Y03024
Y02924
Y02824
X045617Y026208
Y025208
Y024208
Y023208
Y022208
Y021208
Y020208
Y019208
X045085Y03224
Y03324
Y03424
Y03524
X050085
Y03424
Y03324
Y03224
T07
X013875Y013925
X050095
X013875Y037153
X050095
T08
X036365Y014614
X015865Y016614
Y027614
X035865Y033614
T09
X048391Y040007
X049391
X050391
M30
