G04*
G04 #@! TF.GenerationSoftware,Altium Limited,Altium Designer,22.10.1 (41)*
G04*
G04 Layer_Color=128*
%FSLAX24Y24*%
%MOIN*%
G70*
G04*
G04 #@! TF.SameCoordinates,5266F301-D4F6-43A7-B3E8-B4584DB96D65*
G04*
G04*
G04 #@! TF.FilePolarity,Positive*
G04*
G01*
G75*
%ADD68C,0.0020*%
D68*
X13265Y37153D02*
X14485D01*
X13875Y36543D02*
Y37763D01*
X13265Y13925D02*
X14485D01*
X13875Y13315D02*
Y14535D01*
X13048Y13689D02*
X13245D01*
X13146Y13590D02*
Y13787D01*
X13428Y13243D02*
X13625D01*
X13527Y13144D02*
Y13341D01*
X14013Y13196D02*
X14209D01*
X14111Y13098D02*
Y13295D01*
X14458Y13577D02*
X14655D01*
X14557Y13478D02*
Y13675D01*
X14505Y14161D02*
X14702D01*
X14603Y14063D02*
Y14259D01*
X14124Y14607D02*
X14321D01*
X14223Y14508D02*
Y14705D01*
X13540Y14653D02*
X13737D01*
X13639Y14555D02*
Y14752D01*
X13094Y14273D02*
X13291D01*
X13193Y14174D02*
Y14371D01*
X49485Y13925D02*
X50706D01*
X50095Y13315D02*
Y14535D01*
X49315Y14273D02*
X49512D01*
X49413Y14174D02*
Y14371D01*
X49761Y14653D02*
X49957D01*
X49859Y14555D02*
Y14752D01*
X50345Y14607D02*
X50542D01*
X50443Y14508D02*
Y14705D01*
X50725Y14161D02*
X50922D01*
X50824Y14063D02*
Y14259D01*
X50679Y13577D02*
X50876D01*
X50777Y13478D02*
Y13675D01*
X50233Y13196D02*
X50430D01*
X50332Y13098D02*
Y13295D01*
X49649Y13243D02*
X49846D01*
X49747Y13144D02*
Y13341D01*
X49268Y13689D02*
X49465D01*
X49367Y13590D02*
Y13787D01*
X49315Y37550D02*
X49512D01*
X49413Y37452D02*
Y37649D01*
X49761Y37931D02*
X49957D01*
X49859Y37832D02*
Y38029D01*
X50345Y37884D02*
X50542D01*
X50443Y37786D02*
Y37983D01*
X50725Y37439D02*
X50922D01*
X50824Y37340D02*
Y37537D01*
X50679Y36854D02*
X50876D01*
X50777Y36756D02*
Y36953D01*
X50233Y36474D02*
X50430D01*
X50332Y36376D02*
Y36572D01*
X49649Y36520D02*
X49846D01*
X49747Y36422D02*
Y36619D01*
X49268Y36966D02*
X49465D01*
X49367Y36868D02*
Y37065D01*
X49485Y37153D02*
X50706D01*
X50095Y36543D02*
Y37763D01*
X13094Y37501D02*
X13291D01*
X13193Y37403D02*
Y37600D01*
X13540Y37882D02*
X13737D01*
X13639Y37783D02*
Y37980D01*
X14124Y37835D02*
X14321D01*
X14223Y37737D02*
Y37934D01*
X14505Y37389D02*
X14702D01*
X14603Y37291D02*
Y37488D01*
X14458Y36805D02*
X14655D01*
X14557Y36707D02*
Y36904D01*
X14013Y36425D02*
X14209D01*
X14111Y36326D02*
Y36523D01*
X13428Y36471D02*
X13625D01*
X13527Y36373D02*
Y36570D01*
X13048Y36917D02*
X13245D01*
X13146Y36818D02*
Y37015D01*
X15618Y23614D02*
X16012D01*
X15815Y23417D02*
Y23811D01*
X16618Y23614D02*
X17012D01*
X16815Y23417D02*
Y23811D01*
X15618Y24614D02*
X16012D01*
X15815Y24417D02*
Y24811D01*
X16618Y24614D02*
X17012D01*
X16815Y24417D02*
Y24811D01*
X15618Y25614D02*
X16012D01*
X15815Y25417D02*
Y25811D01*
X16618Y25614D02*
X17012D01*
X16815Y25417D02*
Y25811D01*
X23668Y33614D02*
X24062D01*
X23865Y33417D02*
Y33811D01*
X22668Y33614D02*
X23062D01*
X22865Y33417D02*
Y33811D01*
X21668Y33614D02*
X22062D01*
X21865Y33417D02*
Y33811D01*
X20668Y33614D02*
X21062D01*
X20865Y33417D02*
Y33811D01*
X19668Y33614D02*
X20062D01*
X19865Y33417D02*
Y33811D01*
X18668Y33614D02*
X19062D01*
X18865Y33417D02*
Y33811D01*
X17668Y33614D02*
X18062D01*
X17865Y33417D02*
Y33811D01*
X16668Y33614D02*
X17062D01*
X16865Y33417D02*
Y33811D01*
X34268Y33614D02*
X34662D01*
X34465Y33417D02*
Y33811D01*
X33268Y33614D02*
X33662D01*
X33465Y33417D02*
Y33811D01*
X32268Y33614D02*
X32662D01*
X32465Y33417D02*
Y33811D01*
X31268Y33614D02*
X31662D01*
X31465Y33417D02*
Y33811D01*
X30268Y33614D02*
X30662D01*
X30465Y33417D02*
Y33811D01*
X29268Y33614D02*
X29662D01*
X29465Y33417D02*
Y33811D01*
X28268Y33614D02*
X28662D01*
X28465Y33417D02*
Y33811D01*
X27268Y33614D02*
X27662D01*
X27465Y33417D02*
Y33811D01*
X26268Y33614D02*
X26662D01*
X26465Y33417D02*
Y33811D01*
X25268Y33614D02*
X25662D01*
X25465Y33417D02*
Y33811D01*
X16668Y14614D02*
X17062D01*
X16865Y14417D02*
Y14811D01*
X17668Y14614D02*
X18062D01*
X17865Y14417D02*
Y14811D01*
X18668Y14614D02*
X19062D01*
X18865Y14417D02*
Y14811D01*
X19668Y14614D02*
X20062D01*
X19865Y14417D02*
Y14811D01*
X20668Y14614D02*
X21062D01*
X20865Y14417D02*
Y14811D01*
X21668Y14614D02*
X22062D01*
X21865Y14417D02*
Y14811D01*
X23668Y14614D02*
X24062D01*
X23865Y14417D02*
Y14811D01*
X24668Y14614D02*
X25062D01*
X24865Y14417D02*
Y14811D01*
X25668Y14614D02*
X26062D01*
X25865Y14417D02*
Y14811D01*
X26668Y14614D02*
X27062D01*
X26865Y14417D02*
Y14811D01*
X27668Y14614D02*
X28062D01*
X27865Y14417D02*
Y14811D01*
X28668Y14614D02*
X29062D01*
X28865Y14417D02*
Y14811D01*
X29668Y14614D02*
X30062D01*
X29865Y14417D02*
Y14811D01*
X30668Y14614D02*
X31062D01*
X30865Y14417D02*
Y14811D01*
X15235Y27614D02*
X16495D01*
X15865Y26984D02*
Y28244D01*
X15235Y16614D02*
X16495D01*
X15865Y15984D02*
Y17244D01*
X35235Y33614D02*
X36495D01*
X35865Y32984D02*
Y34244D01*
X35735Y14614D02*
X36995D01*
X36365Y13984D02*
Y15244D01*
X49194Y40007D02*
X49587D01*
X49391Y39811D02*
Y40204D01*
X48194Y40007D02*
X48587D01*
X48391Y39811D02*
Y40204D01*
X50194Y40007D02*
X50587D01*
X50391Y39811D02*
Y40204D01*
X19387Y35824D02*
X19780D01*
X19583Y35628D02*
Y36021D01*
X35135Y35824D02*
X35528D01*
X35331Y35628D02*
Y36021D01*
X19387Y42911D02*
X19780D01*
X19583Y42714D02*
Y43108D01*
X35135Y42911D02*
X35528D01*
X35331Y42714D02*
Y43108D01*
X42768Y39837D02*
X43118D01*
X42943Y39662D02*
Y40012D01*
X43753Y39837D02*
X44103D01*
X43928Y39662D02*
Y40012D01*
X44737Y39837D02*
X45087D01*
X44912Y39662D02*
Y40012D01*
X45721Y39837D02*
X46071D01*
X45896Y39662D02*
Y40012D01*
X17802Y40893D02*
X18393D01*
X18097Y40598D02*
Y41189D01*
X15302Y40893D02*
X15893D01*
X15597Y40598D02*
Y41189D01*
X16802Y38893D02*
X17393D01*
X17097Y38598D02*
Y39189D01*
X30410Y42025D02*
X30804D01*
X30607Y41828D02*
Y42222D01*
X30410Y37498D02*
X30804D01*
X30607Y37301D02*
Y37694D01*
X30410Y36513D02*
X30804D01*
X30607Y36317D02*
Y36710D01*
X30410Y41041D02*
X30804D01*
X30607Y40844D02*
Y41238D01*
X23324Y42025D02*
X23717D01*
X23520Y41828D02*
Y42222D01*
X23324Y41041D02*
X23717D01*
X23520Y40844D02*
Y41238D01*
X23324Y37498D02*
X23717D01*
X23520Y37301D02*
Y37694D01*
X23324Y36513D02*
X23717D01*
X23520Y36317D02*
Y36710D01*
X40029Y39837D02*
X40379D01*
X40204Y39662D02*
Y40012D01*
X39044Y39837D02*
X39394D01*
X39219Y39662D02*
Y40012D01*
X38060Y39837D02*
X38410D01*
X38235Y39662D02*
Y40012D01*
X37076Y39837D02*
X37426D01*
X37251Y39662D02*
Y40012D01*
X45400Y19208D02*
X45833D01*
X45617Y18992D02*
Y19425D01*
X45400Y20208D02*
X45833D01*
X45617Y19992D02*
Y20425D01*
X45400Y21208D02*
X45833D01*
X45617Y20992D02*
Y21425D01*
X45400Y22208D02*
X45833D01*
X45617Y21992D02*
Y22425D01*
X45400Y23208D02*
X45833D01*
X45617Y22992D02*
Y23425D01*
X45400Y24208D02*
X45833D01*
X45617Y23992D02*
Y24425D01*
X45400Y25208D02*
X45833D01*
X45617Y24992D02*
Y25425D01*
X45400Y26208D02*
X45833D01*
X45617Y25992D02*
Y26425D01*
X49869Y31240D02*
X50302D01*
X50085Y31023D02*
Y31456D01*
X44869Y31240D02*
X45302D01*
X45085Y31023D02*
Y31456D01*
X49869Y32240D02*
X50302D01*
X50085Y32023D02*
Y32456D01*
X49869Y33240D02*
X50302D01*
X50085Y33023D02*
Y33456D01*
X49869Y34240D02*
X50302D01*
X50085Y34023D02*
Y34456D01*
X49869Y35240D02*
X50302D01*
X50085Y35023D02*
Y35456D01*
X49869Y30240D02*
X50302D01*
X50085Y30023D02*
Y30456D01*
X49869Y29240D02*
X50302D01*
X50085Y29023D02*
Y29456D01*
X49869Y28240D02*
X50302D01*
X50085Y28023D02*
Y28456D01*
X44869Y30240D02*
X45302D01*
X45085Y30023D02*
Y30456D01*
X44869Y29240D02*
X45302D01*
X45085Y29023D02*
Y29456D01*
X44869Y28240D02*
X45302D01*
X45085Y28023D02*
Y28456D01*
X44869Y32240D02*
X45302D01*
X45085Y32023D02*
Y32456D01*
X44869Y33240D02*
X45302D01*
X45085Y33023D02*
Y33456D01*
X44869Y34240D02*
X45302D01*
X45085Y34023D02*
Y34456D01*
X44869Y35240D02*
X45302D01*
X45085Y35023D02*
Y35456D01*
X49062Y23226D02*
X49456D01*
X49259Y23029D02*
Y23423D01*
X49062Y22242D02*
X49456D01*
X49259Y22045D02*
Y22439D01*
X49111Y19387D02*
X49505D01*
X49308Y19191D02*
Y19584D01*
X49111Y18403D02*
X49505D01*
X49308Y18206D02*
Y18600D01*
X33113Y30861D02*
X33428D01*
X33271Y30703D02*
Y31018D01*
X29121Y30854D02*
X29436D01*
X29278Y30696D02*
Y31011D01*
M02*
